<?xml version="1.0" standalone="no"?>
<!DOCTYPE svg PUBLIC "-//W3C//DTD SVG 20010904//EN"
 "http://www.w3.org/TR/2001/REC-SVG-20010904/DTD/svg10.dtd">
<svg version="1.0" xmlns="http://www.w3.org/2000/svg"
 width="450.000000pt" height="450.000000pt" viewBox="0 0 450.000000 450.000000"
 preserveAspectRatio="xMidYMid meet">
<metadata>
Created by potrace 1.10, written by Peter Selinger 2001-2011
</metadata>
<g transform="translate(0.000000,450.000000) scale(0.100000,-0.100000)"
fill="#000000" stroke="none">
<path d="M2105 4274 c-601 -49 -1110 -344 -1437 -833 -160 -239 -252 -486
-294 -786 -17 -124 -17 -132 2 -755 l7 -205 -33 -40 c-43 -53 -52 -81 -44
-129 7 -45 76 -126 124 -146 l29 -12 -50 -25 c-57 -29 -92 -70 -109 -129 -11
-36 -10 -47 8 -87 27 -60 57 -70 119 -36 40 22 45 23 71 9 18 -11 33 -33 46
-70 15 -43 37 -73 100 -136 132 -132 273 -201 391 -192 64 6 67 5 188 -57 310
-160 596 -237 937 -252 398 -17 835 86 1167 274 68 39 74 41 137 36 53 -5 78
-1 127 17 164 59 314 188 364 311 13 34 31 59 48 69 25 14 30 13 71 -10 37
-20 50 -22 73 -14 57 20 73 111 32 183 -23 42 -98 101 -128 101 -12 1 -11 3 4
11 66 36 97 66 121 115 32 65 28 101 -18 157 -17 22 -34 55 -39 76 -5 20 -4
120 2 231 6 107 12 305 12 440 1 290 -15 400 -89 619 -226 667 -798 1140
-1508 1246 -103 15 -345 26 -431 19z m332 -34 c21 -5 69 -11 107 -14 63 -6
129 -18 166 -33 8 -3 22 -7 30 -8 133 -17 579 -223 565 -261 -2 -7 4 -10 13
-7 10 2 26 -4 37 -14 12 -10 36 -29 55 -42 105 -74 310 -289 388 -407 69 -106
170 -291 175 -324 2 -8 8 -24 14 -35 26 -50 85 -250 98 -335 24 -157 24 -151
13 -856 l-3 -211 38 -56 c42 -64 45 -91 18 -146 -19 -36 -79 -91 -99 -91 -5 0
-15 -6 -21 -14 -17 -20 1 -52 34 -60 14 -4 23 -11 20 -16 -3 -5 0 -7 8 -4 19
7 44 -23 29 -38 -7 -7 -19 -4 -40 11 -17 11 -33 21 -36 21 -3 0 -38 16 -77 35
-79 38 -79 38 -79 27 0 -4 15 -14 33 -21 180 -79 207 -100 207 -158 0 -22 4
-32 11 -28 11 8 3 62 -13 82 -12 15 -2 33 19 33 10 0 14 -6 10 -20 -3 -11 -1
-18 4 -15 4 3 8 -19 8 -49 -1 -39 -6 -60 -20 -75 -23 -25 -32 -26 -49 -6 -7 8
-19 15 -26 15 -8 0 -14 4 -14 8 0 4 -13 8 -30 7 -16 0 -30 -4 -30 -9 0 -5 -3
-7 -6 -3 -8 7 -34 -17 -34 -32 0 -6 -7 -11 -16 -11 -8 0 -12 -5 -9 -10 15 -25
-105 -200 -136 -200 -6 0 -24 -14 -42 -31 -39 -37 -97 -68 -116 -61 -8 3 -11
0 -7 -6 4 -7 -4 -14 -21 -18 -15 -4 -34 -11 -40 -17 -7 -5 -13 -6 -13 -3 0 4
-9 2 -20 -4 -15 -8 -20 -8 -21 2 0 10 -2 10 -6 -1 -5 -11 -7 -11 -14 0 -7 11
-9 11 -9 1 0 -7 -5 -10 -10 -7 -33 20 -91 3 -233 -69 -82 -41 -152 -75 -155
-74 -4 1 -18 -3 -32 -9 -76 -33 -129 -52 -165 -59 -22 -4 -42 -11 -45 -15 -3
-5 -21 -10 -40 -13 -19 -2 -47 -9 -62 -15 -15 -6 -51 -12 -80 -15 -29 -2 -60
-6 -68 -9 -18 -7 -100 -16 -225 -26 -143 -11 -334 -3 -460 20 -33 6 -71 12
-85 14 -42 5 -158 33 -177 43 -10 5 -48 17 -85 26 -37 10 -66 21 -64 25 3 4
-5 7 -17 8 -32 1 -75 19 -245 104 -143 72 -156 76 -192 68 -39 -9 -48 -8 -105
5 -41 10 -145 58 -145 67 0 19 23 18 62 -4 24 -13 56 -27 71 -31 15 -3 25 -11
22 -16 -3 -6 1 -7 9 -4 26 10 18 18 -37 38 -120 42 -304 201 -326 282 -19 72
-85 120 -153 111 -37 -5 -84 -34 -73 -45 3 -3 14 3 26 14 28 25 95 25 133 -1
17 -11 41 -46 61 -89 24 -53 48 -86 98 -133 36 -34 77 -69 91 -79 22 -13 24
-19 14 -31 -10 -13 -14 -13 -22 -1 -6 8 -26 24 -45 37 -86 61 -180 183 -167
217 4 10 2 13 -6 8 -8 -5 -9 -2 -5 9 4 11 1 17 -7 17 -8 0 -17 7 -20 16 -4 9
-13 14 -21 10 -8 -3 -15 -2 -15 3 0 11 -51 1 -75 -15 -29 -21 -60 -17 -72 9
-17 34 -23 81 -12 97 8 13 11 13 22 -2 12 -14 14 -13 29 12 11 19 42 40 95 65
116 54 143 69 143 76 0 4 -21 -4 -47 -17 -27 -12 -73 -35 -104 -49 -31 -14
-69 -37 -84 -51 -21 -20 -30 -23 -36 -12 -11 17 23 52 76 77 48 22 62 45 39
63 -8 7 -21 19 -29 26 -7 6 -18 12 -24 12 -6 0 -11 7 -11 16 0 8 -4 13 -8 10
-13 -8 -54 52 -46 66 4 7 3 8 -4 4 -8 -5 -12 4 -12 28 0 24 13 55 40 97 44 68
46 80 39 216 -1 29 0 56 4 60 12 11 8 45 -4 37 -8 -5 -10 11 -7 55 2 33 2 61
-2 61 -10 0 -9 39 1 45 5 4 9 17 9 31 0 14 -4 23 -9 20 -9 -6 -10 12 -11 265
0 146 8 252 25 327 11 46 15 68 21 102 4 19 9 40 13 45 3 6 6 12 7 15 8 50 52
172 93 260 14 30 24 58 23 63 -1 4 1 7 6 7 4 0 14 15 21 33 20 44 117 198 149
233 9 11 33 40 52 64 112 143 394 386 424 365 3 -3 4 -2 1 2 -9 12 201 133
230 133 8 0 15 4 15 9 0 5 8 11 18 14 9 3 55 19 102 36 47 17 94 31 105 31 12
0 25 4 30 9 9 9 55 21 100 26 11 1 27 5 36 9 63 27 484 46 576 26z"/>
<path d="M2155 4210 c-134 -9 -255 -26 -332 -46 -32 -9 -67 -17 -79 -20 -12
-2 -41 -11 -65 -20 -24 -8 -53 -17 -64 -20 -11 -2 -29 -8 -40 -13 -11 -5 -59
-27 -108 -50 -48 -23 -90 -41 -94 -41 -3 0 -21 -11 -40 -26 -18 -14 -33 -21
-33 -17 0 4 -4 3 -8 -3 -4 -6 -29 -23 -57 -39 -51 -29 -160 -112 -229 -175
-53 -48 -226 -230 -219 -230 2 0 -20 -35 -50 -77 -64 -91 -103 -158 -154 -265
-20 -43 -40 -78 -45 -78 -5 0 -7 -4 -4 -8 3 -5 -13 -63 -34 -130 -22 -66 -42
-145 -46 -174 -4 -29 -10 -60 -15 -69 -5 -9 -11 -74 -15 -145 -6 -115 -5 -131
10 -143 23 -20 539 -18 564 2 11 7 17 28 18 52 3 92 41 254 83 350 63 147 143
281 161 270 5 -3 7 1 4 9 -3 8 7 29 23 47 45 52 196 199 204 199 4 0 14 6 21
13 88 82 376 207 508 221 25 2 45 5 45 6 0 14 232 19 340 8 76 -8 247 -52 302
-78 24 -11 46 -20 50 -20 12 0 106 -50 124 -66 9 -8 19 -11 22 -7 4 3 7 1 7
-5 0 -6 8 -13 19 -17 10 -3 28 -13 39 -23 11 -9 38 -32 61 -50 35 -29 67 -60
181 -177 11 -12 20 -26 20 -33 0 -7 4 -12 9 -12 13 0 66 -83 62 -100 -2 -8 0
-12 4 -8 9 9 86 -142 79 -154 -3 -4 -1 -8 3 -8 10 0 43 -74 43 -96 0 -8 5 -24
11 -35 5 -11 12 -34 15 -52 3 -18 8 -43 10 -57 12 -67 21 -146 17 -152 -2 -4
4 -15 14 -25 17 -17 40 -18 287 -16 215 2 272 5 283 16 15 15 24 137 11 137
-13 0 -9 75 5 89 8 9 8 12 0 7 -8 -4 -15 12 -22 51 -6 32 -24 105 -38 163 -15
58 -28 107 -29 110 0 3 -4 13 -8 22 -4 9 -9 22 -10 30 -1 7 -10 30 -19 52 -9
21 -17 45 -17 52 0 8 -5 14 -10 14 -6 0 -9 3 -8 8 1 4 -3 17 -10 28 -6 12 -10
23 -9 25 1 2 0 3 -2 2 -2 -1 -23 32 -47 75 -24 42 -47 82 -51 88 -5 6 -21 31
-38 55 -73 108 -274 319 -376 395 -16 11 -25 25 -21 29 4 5 2 5 -4 2 -7 -4
-45 18 -85 47 -40 30 -77 52 -81 50 -5 -3 -11 2 -14 10 -3 9 -10 14 -14 11 -5
-3 -16 2 -24 11 -9 9 -22 17 -29 18 -28 6 -127 56 -127 65 0 4 -8 8 -17 7 -10
0 -38 8 -63 18 -25 11 -48 19 -52 18 -4 -1 -30 7 -58 18 -27 11 -50 18 -50 16
0 -3 -30 4 -67 15 -78 22 -161 33 -383 53 -19 1 -84 -1 -145 -4z m380 -46
c426 -62 827 -282 1098 -604 256 -305 394 -643 421 -1037 l7 -93 -273 0 -274
0 -11 98 c-17 136 -54 257 -122 397 -71 144 -152 256 -262 359 -166 156 -372
267 -592 319 -78 18 -122 21 -282 21 -181 0 -196 -2 -308 -32 -420 -111 -745
-415 -885 -827 -31 -90 -62 -242 -62 -302 l0 -33 -275 0 c-260 0 -275 1 -275
18 0 55 24 250 41 332 90 440 365 846 748 1102 375 251 833 349 1306 282z"/>
<path d="M2201 3948 c-17 -57 -31 -109 -31 -115 0 -35 -19 -2 -58 97 -44 110
-44 110 -78 110 -19 0 -34 -3 -34 -6 0 -3 28 -71 62 -150 l62 -144 36 0 36 0
43 138 c24 75 46 145 48 155 4 13 -1 17 -24 17 -29 0 -31 -3 -62 -102z m-146
52 c3 -5 1 -10 -4 -10 -6 0 -11 5 -11 10 0 6 2 10 4 10 3 0 8 -4 11 -10z m38
-87 c31 -76 31 -94 -1 -31 -29 58 -43 98 -34 98 4 0 19 -30 35 -67z m138 20
c-8 -15 -10 -15 -11 -2 0 17 10 32 18 25 2 -3 -1 -13 -7 -23z m-88 -125 l15
-23 21 25 21 25 -11 -32 c-14 -42 -43 -43 -64 -3 -18 35 -5 41 18 8z"/>
<path d="M2346 4009 c-15 -97 -27 -252 -20 -259 5 -4 48 -11 97 -14 l87 -7 0
30 0 31 -58 0 c-32 0 -61 2 -64 5 -2 3 -2 19 0 36 l5 31 52 -6 c49 -5 53 -4
59 17 10 36 8 37 -49 37 l-55 0 0 36 0 35 68 -3 c62 -3 67 -1 70 18 4 27 -7
31 -106 39 l-81 7 -5 -33z m51 -14 c-10 -7 -17 -22 -17 -34 0 -11 -4 -21 -10
-21 -12 0 -1 63 14 72 18 12 30 -4 13 -17z m-10 -91 c3 -8 -2 -23 -11 -32 -15
-15 -16 -14 -16 16 0 33 16 43 27 16z m-21 -73 c0 -11 -4 -17 -8 -15 -4 3 -8
12 -8 20 0 8 4 14 8 14 4 0 8 -9 8 -19z m18 -63 c-7 -11 -34 3 -34 18 0 12 4
12 19 2 11 -7 18 -15 15 -20z"/>
<path d="M1810 3993 c-36 -8 -66 -16 -68 -18 -2 -2 61 -246 73 -282 3 -9 12
-10 35 -2 16 6 30 12 30 13 0 1 -7 24 -16 50 -14 41 -14 50 -3 57 10 6 27 -5
62 -41 44 -46 50 -49 82 -42 l34 7 -49 53 -50 54 20 25 c11 14 20 34 20 45 0
32 -29 78 -56 88 -31 12 -33 12 -114 -7z m-9 -43 c-8 -4 -12 -17 -8 -29 3 -12
2 -19 -3 -16 -17 10 -18 45 -2 54 20 12 32 3 13 -9z m136 -3 c1 -11 1 -18 0
-16 -2 2 -8 11 -15 20 -9 12 -9 16 1 16 7 0 14 -9 14 -20z m-29 -28 c3 -29
-11 -44 -49 -54 -24 -6 -27 -3 -36 34 -12 45 -5 51 52 48 24 -2 31 -7 33 -28z
m-73 -79 c16 -6 16 -8 3 -20 -12 -11 -13 -23 -6 -53 15 -69 1 -51 -16 20 -9
37 -19 77 -22 88 -4 15 -2 14 9 -4 8 -14 23 -28 32 -31z m95 31 c-15 -29 -13
-35 20 -72 46 -52 35 -57 -18 -8 l-47 44 25 27 c30 32 34 34 20 9z"/>
<path d="M2587 3988 c-10 -36 -9 -38 21 -38 51 0 52 -7 21 -124 -15 -60 -26
-112 -24 -116 3 -4 15 -10 28 -12 21 -4 25 1 40 59 9 35 24 88 32 118 l16 54
39 -14 c38 -13 39 -13 48 14 l10 28 -94 22 c-52 13 -102 25 -113 28 -13 3 -20
-2 -24 -19z m127 -30 c1 -2 -9 -23 -22 -48 l-23 -45 6 38 c5 30 2 42 -12 52
-15 11 -13 12 17 9 18 -2 34 -5 34 -6z"/>
<path d="M1580 3915 c-41 -18 -74 -38 -72 -45 3 -12 102 -253 106 -258 2 -1
41 12 88 30 82 30 85 33 75 55 -12 28 -14 28 -76 4 l-49 -20 -12 30 c-7 16
-11 31 -9 32 2 2 23 11 47 22 35 15 41 22 36 39 -9 30 -8 30 -60 7 -26 -12
-48 -20 -49 -19 -8 16 -25 61 -23 62 2 1 23 11 48 21 58 24 60 26 54 53 -8 28
-14 27 -104 -13z m-10 -45 c0 -3 -7 -15 -15 -26 -14 -18 -14 -18 -15 7 0 16 5
26 15 26 8 0 15 -3 15 -7z m41 -104 c6 3 5 -3 -2 -14 -11 -17 -9 -25 6 -49 11
-15 18 -31 17 -35 -1 -5 3 -8 8 -8 5 0 10 -4 10 -8 0 -13 -30 -10 -31 2 -3 24
-6 33 -32 86 -31 64 -36 100 -7 52 11 -18 25 -30 31 -26z m79 -100 c0 -2 -7
-7 -16 -10 -8 -3 -12 -2 -9 4 6 10 25 14 25 6z"/>
<path d="M2932 3879 c-15 -24 -17 -21 25 -43 l33 -16 -55 -110 c-52 -103 -54
-110 -36 -120 11 -5 24 -10 29 -10 6 0 34 46 62 103 29 56 54 104 56 106 2 2
18 -6 37 -18 l35 -21 16 25 16 25 -100 50 c-55 27 -101 50 -102 50 -2 0 -9 -9
-16 -21z m88 -51 c0 -6 -6 -5 -15 2 -8 7 -15 14 -15 16 0 2 7 1 15 -2 8 -4 15
-11 15 -16z m24 -20 c-10 -5 -34 -38 -53 -73 -44 -81 -53 -78 -12 4 17 34 28
61 24 61 -4 0 2 6 12 14 11 8 26 11 34 8 12 -4 11 -7 -5 -14z m-104 -168 c-6
-11 -13 -20 -16 -20 -2 0 0 9 6 20 6 11 13 20 16 20 2 0 0 -9 -6 -20z"/>
<path d="M1354 3801 c-61 -37 -79 -86 -48 -129 24 -34 56 -43 116 -32 41 8 55
7 66 -4 33 -33 -27 -86 -63 -56 -13 10 -19 9 -35 -5 -27 -24 -25 -32 11 -51
29 -15 35 -14 75 1 83 31 111 109 58 162 -24 24 -29 25 -100 19 -62 -6 -75 -4
-80 9 -9 23 16 47 45 44 14 -2 37 3 50 10 l25 14 -23 18 c-29 24 -58 24 -97 0z
m56 -127 l35 5 -33 -11 c-41 -14 -85 -1 -90 26 -4 18 -2 17 24 -3 22 -17 37
-21 64 -17z m70 4 c0 -4 -7 -8 -15 -8 -8 0 -15 4 -15 8 0 5 7 9 15 9 8 0 15
-4 15 -9z m38 -10 c15 -20 24 -58 14 -58 -6 0 -13 11 -16 25 -4 14 -11 25 -16
25 -6 0 -10 5 -10 10 0 14 16 13 28 -2z m-2 -96 c-17 -16 -18 -16 -5 5 7 12
15 20 18 17 3 -2 -3 -12 -13 -22z"/>
<path d="M3135 3711 c-116 -71 -117 -219 -2 -272 52 -23 79 -24 124 -2 89 42
123 165 66 234 -49 58 -131 76 -188 40z m35 -21 c0 -5 -3 -10 -7 -10 -29 0
-82 -81 -75 -112 1 -5 -2 -8 -8 -8 -27 0 2 73 45 113 31 28 45 34 45 17z m97
-42 c42 -39 22 -123 -37 -153 -41 -21 -67 -19 -95 10 -78 78 52 219 132 143z
m49 -11 c1 -9 -2 -15 -7 -11 -5 3 -7 9 -4 14 3 4 0 11 -5 13 -6 3 -5 4 1 3 7
-1 13 -10 15 -19z m-13 -129 c-10 -17 -33 -37 -52 -45 -49 -21 -48 -10 3 22
25 16 45 31 44 34 -2 20 3 31 12 26 7 -4 4 -18 -7 -37z"/>
<path d="M1061 3566 l-82 -82 21 -19 c20 -18 21 -18 48 8 l27 27 85 -84 85
-85 24 20 25 20 -88 88 -88 88 32 26 31 27 -19 24 -19 25 -82 -83z m51 2 c-8
-8 -8 -17 -1 -31 9 -15 8 -18 -3 -11 -7 4 10 -16 39 -44 28 -29 47 -52 43 -52
-5 0 -30 21 -56 46 -32 31 -53 44 -66 41 -16 -5 -17 -3 -7 11 14 19 51 51 59
52 2 0 -1 -5 -8 -12z m-72 -68 c0 -5 -5 -10 -11 -10 -5 0 -7 5 -4 10 3 6 8 10
11 10 2 0 4 -4 4 -10z m190 -105 c13 -14 19 -25 14 -25 -8 1 -50 50 -41 50 2
0 14 -11 27 -25z"/>
<path d="M3352 3449 c-98 -78 -111 -92 -102 -109 6 -10 14 -21 18 -24 5 -3 43
24 85 60 42 35 77 62 77 60 0 -3 -22 -43 -50 -90 -51 -89 -56 -123 -16 -110
56 19 181 53 183 50 2 -2 -14 -15 -34 -29 -21 -14 -55 -41 -76 -59 -39 -33
-39 -34 -20 -56 l18 -23 80 67 c153 127 137 108 117 143 -9 17 -22 31 -28 31
-7 0 -48 -11 -93 -23 -77 -23 -92 -23 -72 -1 4 5 25 40 45 77 l37 68 -23 29
c-13 16 -25 29 -28 29 -3 0 -56 -40 -118 -90z m123 43 c6 -4 10 -11 10 -17 -2
-20 -36 -75 -46 -75 -8 0 -8 4 -1 13 7 8 7 18 2 27 -8 12 -13 13 -30 2 -32
-19 -23 2 12 32 35 28 38 29 53 18z m-125 -87 c-7 -9 -15 -13 -19 -10 -3 3 1
10 9 15 21 14 24 12 10 -5z m-40 -34 c0 -5 -7 -12 -16 -15 -14 -5 -15 -4 -4 9
14 17 20 19 20 6z m106 -38 c-2 -10 4 -23 12 -29 12 -9 9 -13 -17 -24 -37 -15
-50 -7 -29 17 8 10 18 26 21 36 4 9 8 17 11 17 2 0 3 -8 2 -17z m189 -13 c9
-15 -6 -36 -48 -64 -48 -33 -56 -33 -20 -1 27 24 27 26 10 39 -18 14 -18 15 0
25 23 13 50 14 58 1z m-100 -108 c-53 -42 -60 -46 -33 -19 16 15 31 27 35 27
4 0 3 -3 -2 -8z"/>
<path d="M922 3410 l-21 -28 22 -15 c13 -8 66 -49 119 -90 l97 -75 16 25 c20
30 30 18 -111 131 l-101 81 -21 -29z m42 -30 c7 0 22 -9 34 -20 12 -12 22 -19
22 -16 0 3 15 -8 33 -24 58 -53 65 -58 73 -52 4 4 4 1 0 -6 -6 -11 -13 -9 -30
7 -12 12 -26 21 -30 21 -4 0 -18 11 -31 24 -12 13 -39 33 -59 45 -20 13 -36
28 -35 34 0 8 2 8 6 0 2 -7 10 -13 17 -13z"/>
<path d="M838 3296 c-17 -24 -17 -24 36 -57 l54 -32 -25 -41 c-14 -23 -27 -43
-29 -45 -2 -2 -27 10 -55 28 -28 17 -52 30 -53 29 -1 -2 -7 -15 -13 -29 -11
-27 -10 -28 115 -102 125 -74 127 -75 139 -54 18 32 18 33 -37 66 -27 17 -50
33 -50 35 0 4 38 74 46 85 2 2 25 -11 52 -28 27 -17 51 -31 54 -31 3 0 13 11
21 24 16 24 16 24 -107 100 -68 42 -125 76 -127 76 -2 0 -12 -11 -21 -24z m52
-21 c4 2 15 -4 25 -15 10 -11 24 -20 32 -20 7 0 13 -4 13 -10 0 -5 6 -10 14
-10 8 0 17 -4 20 -8 3 -5 -5 -8 -18 -8 -23 2 -107 66 -105 82 0 5 3 3 6 -4 2
-6 8 -10 13 -7z m145 -96 c11 -16 1 -19 -13 -3 -7 8 -8 14 -3 14 5 0 13 -5 16
-11z m-229 -54 c17 -16 14 -18 -10 -9 -9 3 -16 10 -16 15 0 13 9 11 26 -6z
m94 -41 c0 -8 3 -14 8 -14 4 0 23 -14 42 -31 l35 -30 -40 22 c-22 11 -58 31
-79 44 l-39 23 37 0 c24 0 36 -5 36 -14z"/>
<path d="M3585 3131 c-77 -15 -138 -31 -136 -37 21 -50 23 -52 52 -44 28 8 31
6 55 -41 l25 -50 -22 -18 c-17 -14 -20 -23 -14 -49 3 -18 10 -32 14 -32 3 0
54 51 113 113 l105 113 -14 37 c-8 20 -20 36 -27 36 -6 -1 -74 -14 -151 -28z
m157 -24 c3 -15 -4 -31 -24 -50 -15 -16 -28 -23 -28 -17 0 6 7 13 15 16 23 9
18 42 -7 50 -22 7 -22 7 -3 15 33 13 42 10 47 -14z m-82 3 c-8 -5 -25 -10 -36
-10 -12 0 -32 -9 -45 -19 -22 -17 -27 -17 -44 -5 -14 10 -15 14 -4 15 30 3 55
8 84 17 17 6 37 11 45 11 13 1 13 0 0 -9z m-153 -26 c-3 -3 -12 -4 -19 -1 -8
3 -5 6 6 6 11 1 17 -2 13 -5z m158 -38 l-50 -43 -18 29 c-10 17 -17 31 -15 33
4 3 98 22 118 24 8 0 -8 -19 -35 -43z m-26 -75 c-38 -42 -69 -68 -69 -57 0 2
9 13 20 26 15 17 17 26 9 36 -8 9 -6 11 9 8 10 -3 29 4 43 15 38 32 35 25 -12
-28z"/>
<path d="M677 2983 c-15 -43 -28 -82 -30 -86 -1 -5 59 -32 134 -61 l136 -52
29 75 c16 41 30 77 32 81 1 4 -8 11 -21 17 -22 10 -25 8 -42 -40 -10 -29 -19
-54 -21 -55 -1 -2 -18 2 -37 9 l-35 12 21 49 c22 53 22 53 -10 62 -18 6 -23 1
-38 -43 l-16 -50 -32 11 c-18 6 -33 12 -35 13 -2 1 8 27 22 58 l24 55 -25 11
c-13 6 -25 11 -26 11 -1 0 -15 -35 -30 -77z m46 -82 c15 -8 27 -19 27 -24 0
-6 -5 -5 -12 1 -7 6 -17 11 -23 12 -23 5 -35 13 -35 22 0 5 3 8 8 6 4 -2 19
-10 35 -17z m112 -59 c-3 -4 -10 -1 -14 7 -5 7 -10 12 -12 10 -2 -1 -15 0 -29
4 -23 6 -24 7 -6 20 16 12 22 11 43 -11 13 -13 21 -27 18 -30z"/>
<path d="M3707 2881 c-134 -45 -138 -46 -132 -71 4 -14 8 -26 9 -28 2 -1 29 7
62 17 54 18 83 20 58 3 -6 -4 -29 -33 -53 -64 -40 -53 -42 -59 -34 -99 l8 -42
59 79 c33 43 61 81 63 83 1 2 39 -12 83 -32 46 -20 80 -31 79 -24 -4 48 -16
60 -92 91 l-77 33 60 16 c60 17 64 22 52 63 -7 20 -10 20 -145 -25z m118 -1
c-3 -5 -11 -10 -16 -10 -5 0 -26 -7 -47 -16 -38 -16 -110 -29 -98 -17 8 8 135
51 154 52 7 1 10 -3 7 -9z m-80 -80 c4 -6 -2 -18 -13 -28 -10 -9 -34 -37 -52
-61 -21 -27 -36 -39 -38 -31 -3 8 4 21 14 30 24 20 64 76 64 90 0 13 17 13 25
0z m120 -58 c-3 -3 -11 0 -18 7 -9 10 -8 11 6 5 10 -3 15 -9 12 -12z"/>
<path d="M626 2802 c-59 -66 -24 -173 56 -172 27 0 57 23 87 68 24 35 67 44
77 17 10 -25 -5 -63 -26 -70 -13 -4 -20 -15 -20 -31 0 -19 5 -24 24 -24 42 0
68 31 73 86 4 43 2 55 -18 78 -15 16 -38 29 -61 33 -35 5 -41 2 -87 -46 -32
-33 -55 -49 -64 -45 -27 10 -28 34 -3 59 l24 24 -22 20 c-22 21 -23 21 -40 3z
m164 -50 c0 -4 -9 -13 -20 -20 -24 -15 -26 -9 -4 12 17 18 24 20 24 8z m-70
-77 c-7 -8 -20 -14 -29 -14 -13 1 -13 2 2 6 9 2 17 9 17 14 0 5 5 9 11 9 8 0
8 -5 -1 -15z m-50 -5 c0 -5 -4 -10 -10 -10 -5 0 -10 5 -10 10 0 6 5 10 10 10
6 0 10 -4 10 -10z m200 -24 c0 -2 -8 -10 -17 -17 -16 -13 -17 -12 -4 4 13 16
21 21 21 13z"/>
<path d="M2110 3567 c-3 -3 -25 -8 -50 -12 -70 -9 -80 -11 -150 -35 -36 -12
-69 -23 -75 -25 -149 -37 -400 -217 -532 -381 -37 -46 -124 -173 -121 -177 1
-1 -12 -31 -29 -67 -28 -60 -46 -106 -58 -156 -18 -69 -36 -154 -41 -183 -2
-19 -9 -40 -15 -47 -6 -8 -6 -14 0 -18 5 -3 7 -23 5 -43 -5 -64 -6 -147 0
-173 3 -14 8 -48 10 -75 3 -28 9 -66 14 -85 5 -19 8 -45 7 -57 -1 -13 1 -21 4
-18 2 3 17 -29 31 -72 15 -43 40 -103 56 -133 15 -30 28 -63 27 -72 0 -10 3
-16 7 -13 8 5 50 -49 50 -64 0 -6 8 -15 18 -20 9 -6 14 -11 10 -11 -4 0 5 -13
20 -29 45 -49 51 -59 44 -66 -4 -4 -2 -5 5 -3 7 1 33 -19 58 -47 25 -27 45
-46 45 -42 0 5 10 -3 23 -17 12 -13 46 -40 76 -60 29 -20 49 -36 44 -36 -12 0
-73 29 -92 44 -7 5 -20 11 -28 12 -8 1 -45 21 -83 43 -38 23 -72 41 -75 41 -4
0 -27 14 -52 30 -24 17 -46 30 -49 30 -22 0 -356 244 -439 322 -16 15 -37 28
-45 28 -9 0 -5 -7 10 -17 14 -9 49 -38 78 -64 181 -164 569 -402 814 -500 56
-22 123 -48 148 -56 25 -8 54 -20 65 -27 11 -7 43 -18 70 -26 28 -7 55 -16 60
-20 6 -3 37 -7 69 -9 33 -1 67 -6 76 -11 21 -11 160 -11 225 0 28 5 75 11 105
14 72 6 147 23 179 41 31 17 214 85 230 85 5 0 15 9 21 20 12 22 50 46 50 32
0 -6 -10 -12 -22 -15 -12 -4 -19 -9 -16 -13 8 -7 172 69 283 133 207 118 544
364 585 428 12 19 1 11 -60 -43 -8 -7 -33 -28 -55 -47 -22 -19 -45 -33 -52
-31 -7 3 -10 -1 -7 -8 3 -8 -11 -22 -38 -35 -24 -11 -39 -21 -33 -21 20 0
-219 -161 -355 -239 -81 -47 -200 -103 -211 -99 -12 4 60 61 77 61 7 0 12 3
11 7 -1 4 25 34 58 66 33 32 73 76 89 97 17 23 34 36 42 33 8 -3 13 -2 13 2
-4 21 2 42 10 38 5 -3 12 1 15 10 4 10 2 13 -7 8 -6 -4 -5 1 4 12 61 72 154
301 174 429 29 177 28 326 -1 470 -9 44 -18 91 -21 105 -5 27 -9 37 -42 115
-11 28 -22 57 -23 65 -2 8 -6 17 -9 20 -3 3 -18 29 -32 57 -14 29 -31 59 -36
65 -44 53 -78 107 -73 114 4 4 1 4 -5 0 -7 -4 -13 -3 -13 3 0 16 -140 151
-207 200 -18 14 -29 29 -26 34 3 6 1 7 -5 3 -7 -4 -49 16 -94 43 -46 28 -95
53 -110 57 -16 3 -28 10 -28 16 0 5 -4 7 -9 3 -5 -3 -15 0 -23 7 -7 7 -20 14
-28 15 -8 1 -26 5 -40 8 -14 4 -40 9 -57 12 -18 3 -31 9 -28 13 2 4 -7 5 -20
2 -14 -2 -25 0 -25 4 0 11 -10 12 -205 20 -88 3 -162 4 -165 1z m363 -43 c391
-74 732 -355 872 -718 67 -175 80 -248 79 -461 -1 -172 -3 -199 -26 -286 -97
-359 -313 -621 -643 -778 -202 -97 -421 -128 -675 -98 -399 48 -788 349 -930
720 -63 164 -74 232 -74 447 0 180 2 203 26 295 61 225 145 379 292 533 281
293 680 421 1079 346z"/>
<path d="M2207 3430 c7 -58 -13 -127 -59 -201 -17 -28 -33 -70 -36 -95 -2 -24
-9 -44 -15 -44 -6 0 -8 31 -5 82 l5 82 -39 -44 c-123 -142 -130 -325 -17 -453
l40 -46 -53 -3 c-50 -3 -53 -5 -56 -31 -7 -61 56 -146 121 -162 22 -6 27 -13
27 -40 0 -18 7 -38 15 -45 8 -7 15 -25 15 -40 l0 -28 -37 18 c-91 43 -206 50
-375 23 l-108 -17 0 -33 c0 -30 -3 -33 -30 -33 l-31 0 3 -315 c2 -173 0 -315
-4 -315 -3 0 -28 32 -53 71 l-48 70 26 52 c44 88 54 174 30 260 -4 17 -8 16
-34 -9 -49 -47 -73 -107 -66 -167 8 -63 -3 -52 -36 39 l-26 71 40 39 c22 22
53 66 69 99 29 59 51 175 34 175 -5 0 -30 -15 -57 -32 -48 -33 -96 -107 -98
-152 -2 -35 -18 56 -18 106 -1 46 1 48 40 69 84 42 169 163 169 239 0 18 -2
18 -47 3 -56 -19 -131 -91 -140 -133 -3 -17 -10 -33 -16 -37 -11 -7 -4 45 18
124 14 48 18 52 60 66 91 31 166 100 200 182 l17 38 -52 -6 c-59 -7 -132 -46
-156 -83 -29 -43 -27 -18 2 33 15 26 55 73 87 103 73 66 107 133 107 208 l0
53 -41 -23 c-89 -50 -149 -144 -149 -232 0 -20 -11 -58 -25 -84 -14 -26 -25
-53 -25 -59 0 -7 -5 -13 -12 -13 -12 0 -2 -15 10 -15 4 0 12 -4 18 -8 7 -4 25
6 43 22 28 27 85 58 135 75 14 5 17 3 12 -11 -12 -32 -50 -82 -61 -80 -5 1 -9
-3 -8 -9 1 -5 -7 -16 -19 -23 -16 -10 -19 -10 -12 1 4 7 -3 3 -17 -10 -13 -13
-27 -23 -32 -22 -4 0 -21 -7 -37 -15 -42 -22 -78 -2 -71 38 1 5 -3 6 -8 3 -12
-8 -27 38 -30 92 -2 48 15 112 30 112 6 0 7 6 3 13 -5 9 -4 9 6 0 8 -7 17 -45
20 -85 6 -69 7 -71 18 -44 13 31 9 85 -13 159 l-12 41 -31 -43 c-63 -86 -65
-201 -6 -279 24 -30 25 -36 14 -85 -15 -76 -15 -127 0 -137 18 -11 48 9 55 37
3 13 10 21 15 18 6 -3 10 2 10 13 0 19 43 63 66 66 7 1 17 5 20 9 4 4 12 7 18
7 6 0 4 -5 -4 -10 -10 -7 -11 -10 -2 -10 8 0 4 -16 -13 -50 -17 -33 -30 -48
-38 -44 -7 4 -9 3 -4 -1 9 -10 -41 -65 -60 -65 -7 0 -13 -4 -13 -9 0 -5 -14
-14 -31 -20 -20 -7 -28 -15 -24 -23 4 -7 -7 2 -24 20 -17 18 -31 29 -31 25 0
-5 -12 12 -25 36 -44 76 -54 171 -18 171 16 0 56 -87 49 -107 -3 -8 -1 -11 4
-8 6 3 10 -3 10 -14 0 -12 4 -21 8 -21 14 0 -3 93 -25 135 -12 22 -32 51 -46
64 l-25 23 -11 -38 c-28 -99 -4 -191 67 -262 31 -31 41 -49 46 -88 14 -107 18
-124 26 -119 5 3 12 1 15 -5 8 -13 35 6 35 25 0 30 66 125 87 125 6 0 14 6 16
13 3 6 6 3 6 -9 1 -31 -24 -108 -43 -130 -9 -10 -16 -22 -17 -26 0 -4 -17 -25
-36 -46 -39 -44 -40 -44 -109 -3 -44 27 -90 84 -80 100 4 5 0 13 -8 18 -14 8
-28 83 -15 83 15 0 55 -45 89 -98 42 -66 52 -52 13 20 -17 32 -47 67 -78 90
l-50 38 -3 -46 c-7 -97 66 -214 153 -245 23 -9 36 -21 40 -38 11 -45 47 -121
57 -121 5 0 7 -4 3 -9 -10 -18 12 -20 34 -4 19 13 22 22 18 50 -3 18 -3 32 1
29 4 -2 8 6 8 19 2 30 26 77 42 83 9 3 12 -12 12 -54 0 -65 -18 -136 -33 -127
-6 3 -7 1 -3 -5 7 -12 -23 -66 -32 -57 -3 2 -10 1 -16 -5 -19 -15 -90 9 -129
44 -21 18 -37 36 -37 39 0 4 -8 16 -17 27 -35 41 -16 82 21 45 8 -8 19 -15 25
-15 6 0 11 -3 11 -7 0 -5 19 -24 42 -43 l42 -34 -20 33 c-27 47 -80 88 -137
107 -26 9 -50 14 -52 12 -2 -2 7 -30 20 -63 39 -96 138 -175 221 -175 11 0 28
-15 41 -38 12 -21 42 -64 67 -94 25 -31 46 -66 46 -77 0 -21 3 -21 295 -21
280 0 295 -1 295 -18 0 -44 78 -74 133 -53 17 7 33 23 40 41 l11 30 293 0 293
0 0 23 c0 13 11 34 25 47 14 13 47 55 72 92 32 47 53 68 67 68 33 1 108 38
144 73 38 36 66 86 77 136 7 33 7 34 -21 27 -46 -12 -111 -54 -137 -89 -46
-62 -47 -76 -3 -32 14 14 28 25 32 25 3 0 19 14 34 30 28 29 60 40 60 20 0 -6
-9 -28 -20 -49 -38 -76 -177 -146 -210 -107 -7 9 -10 16 -6 16 3 0 -6 19 -20
41 -20 32 -27 59 -31 115 -3 43 -2 74 4 74 15 0 33 -23 33 -42 0 -10 5 -18 11
-18 8 0 10 -12 6 -35 -3 -19 -2 -35 3 -35 4 0 6 -9 3 -21 -7 -24 11 -39 39
-31 21 5 50 56 67 119 8 29 18 44 34 49 86 27 156 125 165 232 l5 65 -32 -19
c-49 -29 -98 -84 -120 -136 -25 -58 -15 -62 19 -8 14 22 29 40 35 40 6 0 16
14 23 30 8 17 17 28 22 25 5 -3 11 1 13 7 3 7 6 -4 6 -25 2 -68 -49 -138 -131
-181 l-47 -25 -41 46 c-22 25 -40 51 -40 58 0 7 -6 15 -13 18 -14 5 -42 106
-35 127 2 8 20 -4 46 -30 23 -24 40 -45 37 -48 -5 -6 31 -79 44 -86 19 -12 43
35 52 104 9 64 14 75 50 111 72 72 96 163 68 263 l-11 38 -24 -23 c-37 -35
-62 -79 -77 -137 l-13 -51 -12 80 c-13 78 -12 80 12 112 58 76 56 193 -5 277
-17 23 -32 40 -35 37 -15 -14 -32 -146 -24 -182 5 -22 7 -41 5 -43 -11 -11
-65 122 -65 160 -1 82 -63 178 -142 219 -21 10 -41 19 -46 19 -4 0 -5 -29 -1
-64 8 -77 30 -117 104 -184 46 -42 115 -136 115 -156 0 -3 -17 11 -39 33 -21
21 -59 45 -86 55 -51 17 -105 21 -105 9 0 -5 13 -31 30 -59 38 -67 100 -119
172 -146 63 -22 70 -34 85 -136 7 -50 18 -60 42 -38 10 9 21 13 25 9 4 -4 4 0
1 9 -4 9 -2 19 4 23 6 3 11 15 11 26 0 30 29 81 42 73 8 -5 9 -2 5 9 -3 10 -2
17 3 17 10 0 11 -9 14 -79 2 -47 -39 -130 -80 -165 -32 -27 -36 -27 -53 -12
-9 9 -23 16 -29 16 -7 0 -12 5 -12 10 0 6 -5 10 -10 10 -19 0 -87 73 -108 116
-26 52 -18 68 26 47 41 -20 110 -113 97 -132 -2 -4 2 -8 11 -8 10 0 12 7 8 21
-24 81 -67 128 -142 156 -52 20 -52 20 -52 0 0 -76 85 -197 169 -239 45 -24
47 -32 32 -151 l-7 -55 -8 40 c-11 53 -28 85 -63 116 -30 27 -78 59 -89 59 -4
0 -4 -26 -1 -57 7 -71 54 -166 106 -217 l40 -39 -24 -64 c-38 -100 -43 -105
-42 -37 1 48 -4 68 -25 104 -28 49 -65 87 -74 77 -3 -3 -7 -45 -7 -94 -1 -90
19 -160 59 -204 14 -16 13 -21 -12 -61 -15 -23 -40 -59 -55 -79 -16 -20 -26
-39 -24 -43 3 -3 2 -4 -1 -2 -3 2 -5 150 -4 328 l1 325 -31 -5 c-28 -4 -30 -2
-30 29 l0 34 -107 18 c-164 26 -293 17 -395 -27 -14 -7 -18 -3 -18 15 0 13 7
33 15 43 8 11 15 31 15 45 0 21 8 29 46 45 52 21 91 72 101 130 9 54 -9 70
-74 63 l-53 -6 39 45 c97 110 100 276 8 411 -25 38 -37 42 -37 13 0 -27 -40
-130 -50 -130 -5 0 -8 55 -7 123 2 109 -1 128 -21 173 -24 52 -54 86 -104 117
l-27 17 6 -50z m63 -36 c0 -8 4 -13 9 -9 16 9 53 -106 52 -165 0 -30 -1 -62
-2 -70 -1 -8 -1 -36 -1 -62 2 -38 6 -48 23 -53 23 -8 43 12 60 57 6 16 16 25
22 21 7 -4 8 0 4 13 -7 19 -7 19 8 0 8 -10 12 -23 9 -27 -3 -5 -1 -9 5 -9 29
0 42 -167 17 -216 -8 -15 -13 -30 -11 -33 2 -4 -10 -24 -26 -46 -16 -22 -34
-50 -40 -62 -7 -13 -19 -23 -27 -23 -12 0 -12 5 4 23 23 25 23 23 5 94 -8 31
-27 68 -48 93 -22 25 -36 53 -37 70 -1 15 -4 26 -8 24 -3 -2 -9 9 -13 26 -4
17 -15 35 -25 40 -20 11 -37 13 -28 4 4 -3 -4 -21 -18 -41 -29 -43 -38 -90
-31 -155 4 -28 3 -47 -1 -44 -4 4 -7 11 -8 14 -1 16 -40 72 -54 77 -25 10 -41
-26 -40 -90 2 -90 2 -89 -15 -75 -8 7 -15 21 -15 32 0 10 -4 16 -10 13 -5 -3
-12 7 -16 22 -4 15 -10 33 -14 38 -7 11 -13 56 -13 100 1 69 23 139 53 165 11
9 17 20 13 24 -3 3 -1 6 5 6 7 0 12 -16 12 -39 0 -70 51 -79 63 -11 14 76 27
97 41 68 3 -7 3 -2 0 11 -3 13 -2 26 3 30 17 10 65 142 58 159 -6 16 13 34 27
26 4 -3 8 -12 8 -20z m-689 -354 c-11 -36 -111 -155 -111 -132 0 7 -5 10 -11
7 -11 -7 -3 59 10 80 3 6 6 13 6 17 0 16 47 68 62 68 9 0 13 3 9 7 -3 4 4 13
16 19 20 11 23 10 26 -9 2 -12 -1 -37 -7 -57z m1351 69 c48 -26 91 -84 108
-149 21 -76 -11 -67 -90 27 -8 9 -13 26 -12 36 2 12 -1 17 -7 13 -6 -4 -13 5
-17 21 -3 15 -8 36 -11 46 -5 20 1 21 29 6z m-621 -202 c41 -52 62 -105 55
-140 -11 -52 -21 -57 -118 -57 -83 0 -91 2 -113 26 -38 41 -54 115 -38 173 6
22 8 20 22 -20 10 -27 29 -52 50 -66 41 -28 66 -30 56 -5 -41 96 -42 140 -3
215 l21 41 19 -64 c11 -36 33 -82 49 -103z m880 -15 c19 -25 26 -152 9 -152
-6 0 -10 -7 -10 -15 0 -8 -10 -30 -22 -49 l-22 -34 -36 15 c-19 9 -44 20 -55
26 -11 6 -29 15 -40 21 -12 6 -22 14 -23 18 -2 4 -21 26 -42 48 -47 49 -50 62
-12 56 15 -2 27 -5 27 -6 0 -1 7 -3 16 -5 28 -5 69 -37 62 -48 -3 -6 -1 -7 6
-3 6 4 14 1 16 -7 7 -16 58 -16 78 2 11 8 14 24 10 54 -5 47 7 141 15 117 3
-8 13 -25 23 -38z m-1073 -183 c-16 -10 58 -20 142 -19 123 2 153 2 201 1 l47
-1 -8 -36 c-8 -32 -19 -50 -59 -94 -8 -8 -28 -19 -45 -25 -24 -8 -32 -18 -38
-49 -5 -22 -14 -46 -20 -53 -34 -41 -4 -92 45 -78 12 4 -3 -8 -33 -26 -30 -17
-58 -37 -62 -43 -4 -6 -8 -7 -8 -2 0 6 -7 1 -15 -10 -9 -12 -18 -15 -22 -9
-10 13 -43 34 -65 41 -10 4 -18 10 -18 15 0 5 -6 9 -13 9 -7 0 -21 6 -31 13
-16 12 -13 13 19 9 25 -3 36 -1 31 6 -3 6 -2 13 3 17 12 7 8 31 -13 70 -9 17
-16 39 -16 49 0 22 -27 45 -52 46 -10 0 -18 4 -18 9 0 5 -9 12 -19 16 -13 4
-18 12 -14 22 4 10 2 14 -5 9 -12 -7 -26 25 -27 66 -1 22 3 26 24 26 37 -1 72
12 65 23 -3 6 -7 22 -9 36 l-2 25 22 -28 c14 -18 19 -31 13 -35z m-228 -313
c0 -11 -19 -15 -25 -6 -3 5 1 10 9 10 9 0 16 -2 16 -4z m43 -3 c-7 -2 -19 -2
-25 0 -7 3 -2 5 12 5 14 0 19 -2 13 -5z m647 3 c0 -2 -7 -6 -15 -10 -8 -3 -15
-1 -15 4 0 6 7 10 15 10 8 0 15 -2 15 -4z m-545 -16 c13 -5 14 -9 5 -9 -8 0
-24 4 -35 9 -13 5 -14 9 -5 9 8 0 24 -4 35 -9z m442 -6 c-3 -3 -12 -4 -19 -1
-8 3 -5 6 6 6 11 1 17 -2 13 -5z m-37 -8 c0 -2 -7 -6 -15 -10 -8 -3 -15 -1
-15 4 0 6 7 10 15 10 8 0 15 -2 15 -4z m395 -16 c10 -11 15 -20 11 -20 -4 0
-16 9 -28 20 -12 11 -17 20 -11 20 5 0 18 -9 28 -20z m-1165 -9 c-15 -30 -13
-591 3 -612 10 -13 22 -15 69 -9 55 8 209 6 258 -3 69 -12 100 -22 155 -49 44
-23 63 -28 75 -20 11 6 22 6 34 0 12 -7 30 -4 64 12 107 51 173 63 317 62 132
-1 146 -3 139 -14 -9 -14 39 12 48 26 4 6 8 140 8 298 l0 286 29 -14 29 -15 4
-332 c2 -183 3 -333 2 -335 -1 -1 -29 -5 -63 -8 -40 -3 -61 -2 -61 5 0 7 -18
9 -52 6 -29 -3 -129 -7 -222 -9 -152 -2 -171 -5 -180 -21 -24 -40 -46 -55 -84
-55 -32 0 -41 5 -53 28 -8 15 -19 31 -26 35 -7 4 -132 9 -277 11 -293 3 -302
5 -292 60 3 17 5 165 5 329 0 280 2 298 18 295 12 -2 23 8 33 29 8 18 19 33
23 33 4 0 3 -9 -3 -19z m383 -2 c34 -11 85 -34 114 -52 l52 -31 3 -298 c2
-164 2 -298 2 -298 -1 0 -22 11 -46 25 -74 41 -187 65 -307 65 -58 0 -123 -4
-143 -9 l-38 -9 0 303 0 302 53 10 c96 19 241 15 310 -8z m692 9 l65 -13 0
-301 0 -302 -37 9 c-21 5 -86 9 -144 9 -120 0 -233 -24 -307 -65 -24 -14 -45
-25 -46 -25 0 0 0 134 1 297 3 332 -4 303 78 346 102 53 253 71 390 45z"/>
<path d="M2358 2675 c-2 -3 -73 -6 -156 -7 -84 -2 -152 -6 -152 -10 0 -5 89
-7 198 -7 108 1 186 4 172 6 -14 3 -29 9 -34 14 -11 10 -20 11 -28 4z"/>
<path d="M2020 2643 c0 -6 7 -18 15 -27 8 -8 15 -19 15 -24 0 -5 15 -16 33
-24 25 -12 63 -14 184 -10 l152 4 26 29 c31 36 23 38 -17 4 -29 -24 -35 -25
-173 -25 -130 0 -194 10 -195 29 -1 12 -40 56 -40 44z"/>
<path d="M2163 2504 c-12 -32 11 -49 73 -54 58 -5 104 5 104 22 0 5 -5 18 -10
29 -9 16 -22 19 -86 19 -60 0 -76 -3 -81 -16z m161 -11 c11 -27 -7 -34 -80
-31 -63 3 -69 5 -72 26 -3 21 0 22 71 22 61 0 76 -3 81 -17z"/>
<path d="M2215 2410 c3 -6 24 -10 46 -10 38 0 39 -1 39 -34 0 -25 -6 -38 -26
-51 -25 -16 -27 -16 -48 5 -16 14 -22 28 -18 45 2 15 0 25 -7 25 -22 0 -6 -63
22 -84 l27 -20 28 21 c28 21 42 77 24 95 -13 13 -94 20 -87 8z"/>
<path d="M1778 2253 c-22 -3 -28 -10 -28 -30 0 -22 3 -24 23 -18 89 27 264 10
353 -35 48 -25 46 -25 42 7 -3 24 -12 30 -73 51 -54 19 -95 25 -180 27 -60 2
-122 1 -137 -2z"/>
<path d="M1778 2133 c-22 -3 -28 -10 -28 -30 0 -20 3 -24 18 -18 32 14 177 17
232 6 30 -7 81 -22 113 -35 l58 -24 -3 26 c-3 24 -12 30 -83 54 -68 23 -95 27
-180 26 -55 0 -112 -3 -127 -5z"/>
<path d="M1840 2025 c-8 -2 -32 -6 -52 -10 -32 -5 -38 -10 -38 -32 0 -20 3
-24 18 -17 30 13 187 16 243 5 30 -6 78 -22 107 -36 l52 -24 0 24 c0 28 -26
44 -109 69 -52 15 -191 29 -221 21z"/>
<path d="M1835 1905 c-5 -2 -27 -6 -47 -10 -32 -5 -38 -10 -38 -32 0 -20 3
-24 18 -18 9 5 60 10 113 13 102 4 173 -9 251 -49 l38 -19 0 25 c0 21 -8 29
-45 45 -80 34 -246 60 -290 45z"/>
<path d="M2462 2245 c-88 -21 -132 -45 -132 -72 0 -28 -3 -27 46 -4 76 37 163
54 254 48 47 -3 93 -8 103 -12 13 -6 17 -2 17 18 0 20 -6 25 -37 31 -61 10
-194 5 -251 -9z"/>
<path d="M2450 2126 c-91 -26 -120 -43 -120 -71 l0 -25 38 19 c72 37 160 53
252 48 47 -3 96 -8 108 -12 21 -7 23 -5 20 16 -2 15 -12 26 -28 30 -42 12
-222 8 -270 -5z"/>
<path d="M2483 2015 c-34 -7 -82 -23 -107 -34 -37 -16 -46 -25 -46 -45 l0 -24
38 18 c81 39 150 52 251 48 53 -3 104 -8 114 -13 14 -6 17 -2 17 18 0 23 -5
26 -63 36 -80 14 -126 13 -204 -4z"/>
<path d="M2488 1894 c-37 -8 -88 -23 -113 -34 -36 -15 -45 -24 -45 -44 l0 -25
53 24 c28 14 77 30 107 36 55 11 211 8 243 -6 13 -6 17 -2 17 18 0 22 -6 25
-57 36 -72 14 -121 13 -205 -5z"/>
<path d="M1962 1434 c-12 -8 -22 -21 -22 -28 0 -22 31 -28 45 -10 13 18 45 13
45 -6 0 -6 -20 -33 -45 -59 -25 -26 -45 -58 -45 -70 0 -19 5 -21 65 -21 36 0
65 4 65 9 0 5 3 17 7 26 5 15 0 17 -35 13 -23 -2 -42 -2 -42 1 0 2 16 21 35
42 40 44 44 70 15 99 -24 24 -57 26 -88 4z"/>
<path d="M2123 1428 c-26 -27 -37 -82 -25 -122 20 -71 106 -86 138 -24 23 44
14 126 -16 150 -30 25 -72 23 -97 -4z m78 -52 c10 -36 0 -86 -18 -93 -24 -9
-43 18 -43 61 0 67 46 91 61 32z"/>
<path d="M2299 1424 c-20 -21 -24 -36 -23 -81 0 -48 4 -59 28 -79 34 -30 58
-30 91 -1 28 24 42 79 31 122 -16 64 -83 85 -127 39z m79 -70 c2 -36 -1 -54
-13 -64 -23 -19 -45 5 -45 50 0 54 9 72 34 68 18 -3 21 -11 24 -54z"/>
<path d="M2478 1426 c-19 -17 -25 -30 -21 -45 4 -17 8 -19 19 -10 12 10 14 0
14 -60 0 -64 2 -71 19 -71 18 0 20 9 23 105 3 117 -3 126 -54 81z"/>
<path d="M439 2273 c-1 -5 -2 -141 -3 -303 l-1 -295 -34 -47 c-37 -52 -41 -79
-17 -129 16 -34 70 -79 95 -79 7 0 9 -4 6 -10 -3 -6 1 -7 9 -4 22 9 20 12 -16
28 -59 25 -98 76 -98 127 0 11 16 42 35 70 19 28 35 63 36 78 3 100 -3 535 -7
546 -5 12 39 14 269 15 l274 0 11 -22 c7 -15 11 -18 11 -8 2 38 -16 40 -296
40 -150 0 -274 -3 -274 -7z"/>
<path d="M3507 2273 c-5 -9 -14 -53 -22 -108 -3 -22 -10 -64 -16 -93 -6 -30
-9 -56 -6 -58 5 -5 34 131 43 202 l6 50 269 3 269 2 0 -294 0 -295 35 -51 c39
-57 44 -93 16 -135 -22 -33 -68 -66 -93 -66 -10 0 -18 -5 -18 -10 0 -15 51 0
82 24 33 26 58 74 58 113 0 16 -15 51 -35 80 l-35 52 3 286 c2 180 -1 289 -7
295 -12 12 -542 14 -549 3z"/>
<path d="M412 2210 c0 -19 2 -27 5 -17 2 9 2 25 0 35 -3 9 -5 1 -5 -18z"/>
<path d="M1004 2162 c4 -35 11 -73 17 -85 6 -16 7 -7 3 28 -4 28 -7 62 -9 78
-1 15 -5 30 -10 35 -4 4 -5 -21 -1 -56z"/>
<path d="M1031 2034 c0 -11 3 -14 6 -6 3 7 2 16 -1 19 -3 4 -6 -2 -5 -13z"/>
<path d="M3425 2020 c3 -5 8 -10 11 -10 2 0 4 5 4 10 0 6 -5 10 -11 10 -5 0
-7 -4 -4 -10z"/>
<path d="M620 1806 c0 -102 3 -187 8 -189 4 -3 6 78 5 179 l-2 185 195 -2
c107 -1 198 1 201 5 4 3 -87 6 -200 6 l-207 0 0 -184z"/>
<path d="M3665 1983 l200 -3 0 -188 0 -187 70 -28 c38 -15 72 -32 76 -38 3 -6
9 -10 13 -9 4 1 12 0 19 -3 6 -2 -6 -7 -29 -11 -27 -5 -55 -2 -88 9 -26 9 -51
14 -54 10 -10 -10 -6 -85 5 -96 12 -12 93 -32 101 -25 6 7 -11 12 -60 21 -37
6 -38 7 -38 49 l0 44 38 -14 c47 -17 99 -17 137 0 l30 14 -50 22 c-27 13 -72
31 -100 41 l-50 17 -3 191 -2 191 -208 -2 -207 -3 200 -2z"/>
<path d="M3770 1495 c0 -206 4 -375 9 -375 4 0 8 169 7 375 -1 206 -4 375 -8
375 -5 0 -8 -169 -8 -375z"/>
<path d="M716 1845 c-3 -8 -5 -184 -5 -390 0 -360 1 -377 19 -395 11 -11 20
-25 20 -32 0 -6 3 -8 7 -5 7 8 58 -29 141 -101 41 -36 140 -102 151 -102 6 0
11 -4 11 -9 0 -5 8 -11 18 -15 9 -3 51 -26 92 -51 41 -24 88 -50 104 -56 16
-7 59 -27 95 -46 36 -18 71 -33 78 -33 7 0 27 -6 45 -14 111 -46 322 -98 488
-121 88 -11 380 -21 370 -12 -3 2 -75 7 -160 10 -179 8 -306 26 -472 67 -330
83 -653 252 -927 485 l-65 55 3 390 c1 214 1 390 -2 390 -3 0 -7 -7 -11 -15z"/>
<path d="M796 1704 c-14 -13 -16 -51 -17 -252 0 -130 -1 -262 -2 -292 -2 -54
-1 -56 40 -87 23 -18 51 -40 61 -50 45 -43 215 -163 230 -163 6 0 13 -7 16
-16 3 -8 10 -12 16 -9 5 3 10 3 10 -2 0 -4 24 -19 53 -32 28 -13 55 -29 59
-34 3 -6 16 -12 29 -14 35 -5 90 -43 82 -56 -4 -8 -1 -7 9 1 13 11 24 8 63
-13 26 -15 52 -24 60 -22 7 3 16 2 21 -3 9 -8 129 -48 161 -53 10 -2 61 -13
113 -24 52 -12 129 -27 170 -34 89 -15 414 -21 486 -9 28 5 73 11 100 14 27 3
56 8 64 9 8 2 38 7 65 12 28 4 68 14 89 22 22 7 41 11 44 8 3 -3 10 -1 16 4 6
4 49 19 96 32 47 13 104 34 127 46 23 13 49 23 57 23 9 0 16 4 16 9 0 7 17 16
50 25 3 0 42 20 87 44 46 24 83 40 83 37 0 -3 10 3 22 15 12 11 25 20 29 20 4
0 23 14 41 30 19 18 40 29 51 26 9 -2 15 0 12 4 -3 5 6 17 21 27 14 10 41 30
59 46 18 15 37 27 42 27 6 0 29 23 52 50 l43 51 -2 167 c-4 409 -6 432 -35
432 -7 0 -18 -7 -25 -15 -7 -9 -19 -14 -27 -11 -8 3 -12 2 -9 -3 3 -4 -8 -18
-25 -30 -26 -19 -33 -21 -47 -9 -15 11 -15 11 -5 -3 10 -12 9 -18 -7 -32 -11
-9 -24 -17 -28 -17 -5 0 -17 -8 -28 -17 -44 -40 -101 -81 -144 -104 -25 -13
-58 -33 -75 -44 -16 -12 -52 -32 -80 -45 -27 -13 -61 -32 -75 -41 -14 -9 -36
-20 -50 -24 -14 -4 -33 -14 -42 -23 -13 -10 -18 -11 -18 -3 0 9 -4 8 -15 -2
-8 -8 -47 -27 -87 -42 -40 -15 -97 -36 -125 -47 -29 -11 -60 -18 -68 -14 -10
4 -14 2 -9 -5 4 -7 1 -10 -7 -7 -8 3 -29 -1 -48 -8 -19 -8 -36 -12 -39 -9 -2
2 -14 0 -24 -6 -11 -6 -42 -11 -69 -11 -27 1 -49 -3 -49 -8 0 -5 -23 -8 -51
-6 -27 1 -52 -1 -55 -5 -7 -13 -177 -9 -289 6 -89 12 -239 42 -290 58 -5 2
-37 12 -70 21 -33 10 -85 30 -115 44 -30 14 -58 25 -62 24 -5 -1 -8 5 -8 13 0
8 -5 15 -11 15 -5 0 -8 -4 -5 -9 3 -5 -22 5 -57 21 -145 70 -192 96 -312 176
-55 37 -108 70 -117 74 -10 4 -18 12 -18 18 0 5 -7 10 -16 10 -8 0 -13 4 -10
9 3 5 -5 12 -18 15 -13 3 -48 26 -77 51 -29 25 -56 45 -60 45 -4 0 -15 -7 -23
-16z m78 -52 c323 -254 723 -453 1051 -522 129 -27 376 -37 511 -21 370 45
744 212 1142 507 l112 84 -2 -297 -3 -297 -70 -59 c-229 -193 -578 -365 -880
-435 -570 -132 -1182 -21 -1670 303 -60 40 -143 102 -184 137 l-75 63 0 293
c-1 160 1 292 3 292 2 0 31 -22 65 -48z"/>
<path d="M3342 1283 l-22 -16 46 -84 c25 -46 44 -93 42 -105 -4 -30 -52 -57
-75 -42 -10 6 -40 49 -66 97 l-49 86 -24 -16 -24 -16 45 -86 c70 -130 104
-151 181 -115 88 42 93 101 20 232 -26 45 -48 82 -49 81 -1 0 -12 -7 -25 -16z
m48 -63 c0 -5 -2 -10 -4 -10 -3 0 -8 5 -11 10 -3 6 -1 10 4 10 6 0 11 -4 11
-10z m22 -42 c8 -13 18 -34 22 -48 7 -24 7 -24 -6 -5 -16 23 -39 75 -34 75 2
0 10 -10 18 -22z m-173 -52 c-3 -3 -11 5 -18 17 -13 21 -12 21 5 5 10 -10 16
-20 13 -22z m27 -48 c8 -18 28 -43 42 -55 15 -13 21 -23 14 -23 -16 0 -53 43
-69 80 -16 40 -8 38 13 -2z m158 -42 c-3 -8 -13 -17 -22 -21 -13 -5 -13 -2 3
15 21 24 26 25 19 6z"/>
<path d="M1103 1270 c-63 -38 -92 -144 -58 -210 19 -37 82 -70 132 -70 79 0
143 74 143 164 0 102 -128 171 -217 116z m57 -8 c0 -4 -16 -16 -35 -26 -19
-11 -35 -22 -35 -26 0 -12 -29 -45 -30 -33 0 17 60 84 70 78 5 -3 11 -1 15 5
7 12 15 13 15 2z m79 -58 c25 -32 27 -64 6 -104 -40 -77 -155 -62 -155 20 0
37 23 85 47 99 34 20 80 13 102 -15z m41 5 c0 -6 -4 -7 -10 -4 -5 3 -10 11
-10 16 0 6 5 7 10 4 6 -3 10 -11 10 -16z m-212 -86 c-1 -10 2 -29 5 -43 6 -20
4 -19 -8 5 -17 35 -19 55 -6 55 6 0 9 -8 9 -17z m222 -19 c-17 -44 -78 -95
-112 -94 -7 1 1 8 17 17 45 23 65 44 81 82 17 41 29 36 14 -5z"/>
<path d="M1387 1148 c-8 -18 -33 -77 -56 -132 -23 -54 -41 -99 -39 -101 2 -2
15 -6 29 -10 24 -6 28 -3 44 39 27 70 35 64 55 -35 7 -39 17 -59 28 -62 9 -3
24 -8 34 -12 14 -6 15 -2 8 32 -17 85 -19 104 -10 98 13 -8 66 21 74 40 13 35
6 85 -15 106 -17 17 -118 69 -134 69 -3 0 -11 -15 -18 -32z m51 -19 c-20 -13
-38 -11 -32 5 3 8 13 12 25 9 16 -5 18 -8 7 -14z m33 -35 c24 -12 30 -21 27
-42 -2 -21 -9 -28 -30 -30 -15 -2 -36 2 -47 8 -20 10 -20 12 -4 45 9 19 18 35
20 35 2 0 18 -7 34 -16z m69 -25 c0 -5 -4 -9 -10 -9 -5 0 -10 7 -10 16 0 8 5
12 10 9 6 -3 10 -10 10 -16z m-149 -41 c10 -18 9 -20 -5 -15 -10 4 -14 3 -11
-2 6 -10 -13 -26 -21 -18 -5 5 13 57 20 57 3 0 10 -10 17 -22z m149 12 c0 -13
-37 -50 -50 -50 -5 0 3 13 18 30 30 33 32 34 32 20z m-84 -51 c3 -6 2 -15 -4
-21 -6 -6 -12 -6 -16 1 -4 6 -1 11 6 12 7 0 4 4 -7 9 -16 7 -17 9 -3 9 9 1 20
-4 24 -10z m-108 -23 c-7 -8 -15 -12 -17 -11 -5 6 10 25 20 25 5 0 4 -6 -3
-14z"/>
<path d="M3007 1127 c-15 -6 -26 -16 -23 -22 2 -5 26 -64 52 -130 26 -66 48
-121 50 -123 1 -2 34 10 72 27 39 17 75 31 81 31 13 0 13 2 1 34 l-9 25 -54
-24 -54 -24 -43 110 c-24 60 -44 109 -44 108 -1 -1 -14 -6 -29 -12z m40 -75
c0 -11 -4 -10 -14 4 -7 10 -13 22 -13 26 0 5 6 3 13 -4 8 -7 14 -19 14 -26z
m21 -52 c8 -16 12 -35 10 -41 -2 -7 -11 7 -20 30 -19 47 -10 57 10 11z m55
-112 c-9 -16 -21 -7 -32 25 l-12 32 24 -25 c14 -14 22 -28 20 -32z"/>
<path d="M2904 1087 l-30 -9 23 -80 c13 -44 23 -93 23 -108 0 -37 -24 -60 -61
-60 -35 0 -46 21 -75 143 -18 78 -29 90 -62 68 -12 -7 -11 -22 3 -87 25 -112
43 -152 76 -169 33 -18 42 -18 93 -4 88 24 103 77 63 229 l-22 86 -31 -9z m22
-63 c3 -22 2 -25 -6 -14 -10 15 -14 58 -5 48 3 -3 8 -18 11 -34z m-168 -59
c-3 -3 -9 2 -12 12 -6 14 -5 15 5 6 7 -7 10 -15 7 -18z m9 -22 c-4 -3 -2 -12
3 -19 6 -6 10 -16 9 -20 -4 -23 3 -42 21 -62 12 -12 17 -22 13 -22 -4 0 -1 -5
7 -11 13 -9 13 -10 0 -6 -18 5 -50 58 -54 89 -1 13 -5 29 -9 35 -6 10 0 23 11
23 3 0 2 -3 -1 -7z m173 -103 c0 -5 -5 -10 -11 -10 -5 0 -7 5 -4 10 3 6 8 10
11 10 2 0 4 -4 4 -10z"/>
<path d="M1616 1067 c-9 -34 -8 -34 29 -41 40 -8 41 -1 -5 -148 l-27 -87 30
-11 c17 -5 31 -9 32 -8 1 2 14 50 30 108 15 58 30 108 32 112 2 3 19 2 39 -4
40 -11 39 -11 48 19 6 19 2 23 -31 32 -21 6 -68 19 -105 30 l-66 19 -6 -21z
m111 -56 c-12 -14 -26 -41 -32 -63 -2 -5 -3 -19 -4 -33 0 -14 -5 -25 -10 -25
-6 0 -6 12 -1 30 5 17 7 30 4 30 -2 0 2 13 10 29 9 16 13 31 10 34 -11 10 6
26 22 20 13 -5 13 -8 1 -22z m-57 -171 c0 -5 -5 -10 -11 -10 -5 0 -7 5 -4 10
3 6 8 10 11 10 2 0 4 -4 4 -10z"/>
<path d="M2626 1018 c-32 -9 -45 -21 -80 -76 l-41 -65 -9 62 c-8 58 -10 61
-37 61 -34 0 -34 0 -14 -136 8 -54 16 -114 17 -131 2 -34 7 -37 44 -27 18 5
20 10 14 49 -4 28 -2 49 6 60 11 15 16 13 51 -25 21 -24 42 -48 48 -56 7 -8
22 -10 47 -6 l38 7 -65 70 c-35 39 -64 73 -65 77 0 4 20 39 45 78 25 38 44 70
42 69 -1 -1 -19 -6 -41 -11z m-141 -133 l17 -34 34 37 c19 20 34 31 34 25 0
-7 -5 -13 -10 -13 -13 0 4 -35 30 -65 10 -11 25 -33 35 -50 14 -22 6 -17 -27
18 -60 63 -86 61 -108 -10 l-9 -28 1 30 c0 17 -2 37 -5 45 -6 17 -15 80 -11
80 2 0 10 -16 19 -35z"/>
<path d="M1896 988 c-13 -23 -128 -227 -134 -239 -2 -4 12 -8 31 -11 30 -3 36
0 45 26 11 28 12 29 64 22 65 -9 68 -11 68 -46 0 -28 15 -40 49 -40 17 0 17 4
1 93 -10 50 -21 117 -25 149 -6 46 -11 57 -29 62 -38 10 -55 6 -70 -16z m68
-24 c11 -29 6 -35 -16 -20 -17 12 -25 13 -36 3 -13 -10 -14 -9 -3 11 14 25 46
29 55 6z m-10 -133 c-2 -2 -19 0 -38 3 l-36 7 27 52 27 52 11 -55 c6 -30 10
-57 9 -59z m-82 -5 c7 -13 7 -16 -2 -11 -6 4 -20 -1 -31 -11 -19 -17 -20 -17
-9 7 6 13 13 33 17 44 5 15 8 16 11 5 3 -8 9 -23 14 -34z m116 -22 c2 -23 0
-24 -14 -10 -8 9 -12 20 -9 26 11 18 21 11 23 -16z"/>
<path d="M2170 972 c-76 -38 -103 -134 -58 -213 52 -93 199 -92 250 2 27 49
21 139 -13 175 -52 55 -115 68 -179 36z m-3 -43 c-15 -11 -27 -27 -27 -34 0
-8 -4 -16 -8 -19 -5 -3 -9 2 -9 10 0 19 55 79 64 71 3 -4 -6 -16 -20 -28z
m177 -24 c3 -8 1 -17 -4 -20 -6 -4 -10 1 -10 9 0 9 -9 21 -20 28 -11 7 -20 16
-20 21 0 11 48 -22 54 -38z m-39 -16 c20 -38 19 -68 -4 -105 -35 -58 -108 -52
-138 10 -14 30 -15 41 -4 76 22 74 112 86 146 19z m-175 -61 c-1 -26 -3 -30
-10 -16 -6 9 -7 23 -4 32 9 25 14 19 14 -16z m16 -52 c8 -8 14 -19 14 -24 0
-6 6 -13 13 -15 8 -4 9 -6 0 -6 -6 -1 -21 13 -33 29 -22 31 -19 40 6 16z m183
-22 c-7 -8 -22 -20 -33 -26 -16 -9 -14 -3 9 23 28 33 51 36 24 3z"/>
<path d="M595 1600 c-16 -7 -17 -9 -3 -9 9 -1 20 4 23 9 7 11 7 11 -20 0z"/>
<path d="M495 1564 c-80 -33 -85 -40 -39 -53 56 -16 94 -13 139 9 22 11 31 18
20 14 -54 -15 -115 -22 -141 -15 -18 5 -24 10 -16 15 7 4 17 4 22 1 6 -3 10
-2 10 2 0 5 18 16 40 26 22 9 40 19 40 22 0 9 -13 5 -75 -21z"/>
<path d="M628 1502 c-3 -9 -1 -26 3 -37 6 -15 8 -11 8 18 1 40 -4 48 -11 19z"/>
<path d="M580 1430 c0 -5 -6 -7 -14 -4 -8 3 -23 1 -33 -4 -14 -8 -7 -10 27 -6
47 4 81 24 42 24 -12 0 -22 -4 -22 -10z"/>
<path d="M627 1353 c-2 -5 -1 -19 4 -33 7 -23 7 -23 8 8 1 31 -3 40 -12 25z"/>
<path d="M3860 1325 c0 -19 4 -35 8 -35 4 0 6 16 4 35 -2 19 -6 35 -8 35 -2 0
-4 -16 -4 -35z"/>
<path d="M568 1270 c-38 -21 -57 -40 -38 -40 6 0 28 9 50 20 49 25 48 25 53
-2 4 -21 4 -20 6 3 0 16 -5 29 -15 33 -19 7 -12 9 -56 -14z"/>
<path d="M3873 1283 c-16 -6 -17 -44 -1 -78 11 -25 52 -44 66 -31 8 9 -37 45
-55 46 -11 0 -20 50 -9 50 2 0 24 -9 50 -21 66 -29 80 -18 18 14 -28 15 -53
27 -54 26 -2 0 -9 -3 -15 -6z"/>
<path d="M581 1201 c-34 -26 -19 -46 20 -26 28 15 29 15 29 -10 0 -14 4 -25 9
-25 5 0 4 17 -1 40 -12 44 -22 48 -57 21z m29 -5 c0 -2 -7 -7 -16 -10 -8 -3
-12 -2 -9 4 6 10 25 14 25 6z"/>
<path d="M350 1170 c0 -11 4 -20 9 -20 5 0 7 9 4 20 -3 11 -7 20 -9 20 -2 0
-4 -9 -4 -20z"/>
<path d="M3850 1143 c0 -58 -18 -109 -44 -126 -13 -9 -38 -29 -56 -46 -19 -16
-37 -28 -41 -26 -4 3 -9 -4 -12 -15 -4 -17 1 -15 36 12 23 18 61 52 85 74 37
37 42 47 42 87 0 25 3 52 6 61 3 9 1 16 -5 16 -6 0 -11 -17 -11 -37z"/>
<path d="M3975 1167 c-34 -21 -65 -61 -75 -98 -6 -20 -23 -54 -38 -75 -53 -73
-199 -182 -282 -209 -27 -9 -52 -21 -55 -26 -9 -13 13 -11 43 5 26 13 82 37
92 39 3 0 11 7 19 15 8 7 37 31 65 51 28 21 74 62 101 92 28 30 53 53 56 52 4
-1 6 3 6 10 -2 67 47 136 100 139 50 2 78 -3 96 -19 9 -9 20 -13 23 -10 4 3
-9 15 -27 26 -37 23 -93 26 -124 8z"/>
<path d="M641 1100 c-1 -31 7 -43 57 -91 62 -60 168 -146 247 -200 28 -19 53
-38 57 -44 4 -6 8 -2 8 8 0 9 -7 17 -15 17 -8 0 -15 5 -15 10 0 6 -7 10 -15
10 -9 0 -18 7 -21 15 -4 8 -10 15 -15 15 -6 0 -15 5 -22 10 -7 6 -33 27 -59
46 -26 20 -45 41 -41 47 3 6 1 7 -6 3 -7 -5 -25 5 -44 23 -18 17 -46 42 -64
56 -22 18 -35 40 -41 68 l-10 42 -1 -35z"/>
<path d="M3776 1094 c-13 -42 -265 -234 -419 -321 -207 -116 -383 -187 -602
-241 -95 -24 -278 -52 -340 -52 -24 0 -47 -5 -50 -10 -4 -7 7 -9 32 -6 21 3
70 7 108 11 64 6 147 21 265 48 25 5 55 10 67 11 12 0 20 3 17 5 -2 2 47 21
109 41 101 33 165 59 237 95 81 41 166 88 192 106 16 12 32 19 34 16 3 -3 13
1 22 9 10 9 47 38 85 66 56 42 70 48 82 38 9 -8 15 -8 15 -2 0 6 -6 12 -12 15
-14 5 31 44 45 39 4 -1 7 2 7 7 0 5 18 22 40 39 48 35 83 78 77 95 -2 7 -7 3
-11 -9z"/>
<path d="M3720 990 c0 -5 5 -10 11 -10 5 0 7 5 4 10 -3 6 -8 10 -11 10 -2 0
-4 -4 -4 -10z"/>
<path d="M3610 860 c-36 -27 -71 -49 -77 -50 -13 0 -19 -20 -7 -20 10 0 128
86 143 104 21 25 10 19 -59 -34z"/>
<path d="M3508 823 c7 -3 16 -2 19 1 4 3 -2 6 -13 5 -11 0 -14 -3 -6 -6z"/>
</g>
</svg>
