<svg xmlns="http://www.w3.org/2000/svg" width="1024" height="1024" viewBox="0 0 1024 1024" version="1.1">
	<path d="M 483 79.146 C 422.289 83.327, 370.453 97.570, 316 125.033 C 277.357 144.522, 244.517 168.491, 211.938 200.984 C 162.187 250.604, 125.875 312.208, 106.107 380.527 C 99.501 403.359, 95.381 424.733, 91.849 454.500 C 90.094 469.289, 90.061 528.443, 91.799 544.500 C 95.027 574.335, 100.891 602.891, 108.989 628.223 C 111.195 635.123, 113 640.985, 113 641.249 C 113 641.512, 110.974 642.006, 108.497 642.345 C 102.977 643.102, 96.666 646.212, 94.566 649.209 C 93.705 650.439, 93 653.191, 93 655.325 C 93 663.405, 106.148 686.490, 120.447 703.514 C 124.598 708.456, 128.275 713.536, 128.619 714.803 C 129.478 717.970, 127.238 720.855, 109.500 739.432 C 101.250 748.072, 93.953 756.121, 93.285 757.320 C 91.218 761.031, 91.736 766.533, 94.458 769.768 C 102.163 778.924, 142.679 788.384, 179.806 789.695 L 197.113 790.306 209.806 803.252 C 263.674 858.191, 333.917 898.225, 408.500 916.495 C 428.263 921.336, 442.207 923.909, 463.500 926.644 C 481.220 928.920, 540.170 929.258, 557.500 927.183 C 611.953 920.663, 658.972 906.764, 704.235 883.807 C 745.837 862.707, 777.395 839.780, 810.857 806.344 L 827.215 790 837.857 789.999 C 857.768 789.998, 884.572 786.694, 902.662 782.012 C 923.359 776.655, 934.459 768.947, 932.532 761.270 C 932.185 759.887, 924.736 751.376, 915.980 742.356 C 899.344 725.220, 894.385 718.579, 895.354 714.734 C 895.664 713.505, 899.364 708.225, 903.577 703 C 913.323 690.911, 922.192 677.778, 927.130 668.123 C 934.089 654.515, 931.832 647.952, 918.673 643.523 C 914.957 642.272, 911.955 640.856, 912.002 640.375 C 912.049 639.894, 913.649 634.568, 915.558 628.541 C 922.985 605.086, 928.281 578.901, 931.688 548.800 C 934.177 526.802, 934.165 470.473, 931.667 449.538 C 922.351 371.470, 895.838 304.854, 849.730 243.668 C 800.187 177.922, 730.044 127.447, 651.407 100.956 C 598.683 83.194, 538.120 75.350, 483 79.146 M 485 100.694 C 473.677 101.362, 451.051 104.206, 438 106.602 C 390.618 115.300, 336.187 135.865, 299.206 159.042 C 195.258 224.187, 127.906 330.558, 113.394 452.500 C 109.971 481.263, 110.517 528.734, 114.614 558.500 C 118.112 583.920, 126.494 618.224, 133.935 637.572 L 137.039 645.645 147.270 646.828 C 163.803 648.741, 163 648.962, 163 642.500 L 163 637 215.267 637 L 267.534 637 260.441 622.682 C 241.099 583.640, 233.057 548.689, 233.019 503.500 C 232.970 446.279, 248.811 393.890, 280.491 346.500 C 291.067 330.679, 299.675 320.279, 314.475 305.441 C 357.062 262.743, 407.866 236.900, 469.087 226.790 C 480.762 224.863, 486.192 224.579, 511 224.605 C 535.399 224.630, 541.573 224.954, 553.905 226.862 C 606.514 235.001, 653.295 255.992, 693.115 289.328 C 713.019 305.991, 729.571 324.578, 744.472 347 C 769.689 384.946, 785.254 429.125, 790.047 476.360 C 791.597 491.636, 790.762 529.740, 788.564 544 C 784.488 570.438, 775.550 599.033, 764.182 622 C 760.507 629.425, 757.350 635.837, 757.167 636.250 C 756.983 636.663, 780.383 636.999, 809.167 636.999 L 861.500 636.997 861.157 642.512 L 860.813 648.026 869.657 647.370 C 874.521 647.009, 880.515 646.437, 882.978 646.098 L 887.456 645.482 890.333 637.991 C 894.913 626.067, 901.587 601.733, 904.877 584.959 C 910.617 555.697, 912.994 530.961, 912.998 500.450 C 913.010 405.128, 884.274 322.257, 825.459 248 C 812.333 231.427, 782.882 201.922, 766 188.431 C 700.563 136.137, 625.182 106.853, 541 101.024 C 527.626 100.098, 498.063 99.924, 485 100.694 M 516.667 136.186 C 515.835 139.109, 512.701 150.275, 509.702 161 L 504.250 180.500 496.375 156.164 L 488.500 131.828 481 132.514 C 476.875 132.892, 473.358 133.334, 473.186 133.498 C 473.013 133.662, 477.121 145.204, 482.315 159.148 C 487.510 173.092, 492.662 186.975, 493.765 190 L 495.771 195.500 503.143 195.788 C 508.032 195.979, 511.069 195.642, 512.160 194.788 C 513.470 193.762, 533 135.062, 533 132.150 C 533 131.750, 529.665 131.299, 525.590 131.147 L 518.179 130.871 516.667 136.186 M 544.600 137.250 C 544.238 140.137, 542.313 154.320, 540.321 168.767 C 538.330 183.214, 536.977 195.311, 537.316 195.649 C 537.930 196.263, 575.185 202.206, 575.525 201.744 C 576.359 200.607, 577.623 190.385, 576.979 189.987 C 576.521 189.704, 570.667 188.638, 563.969 187.619 L 551.792 185.765 552.484 179.133 C 552.864 175.485, 553.473 172.200, 553.837 171.832 C 554.202 171.465, 558.550 171.787, 563.500 172.547 C 577.184 174.648, 576.141 175.104, 577.483 166.437 L 578.113 162.373 567.358 161.123 C 561.443 160.435, 556.317 159.696, 555.966 159.479 C 555.491 159.185, 556.787 147.270, 557.396 146.342 C 557.453 146.254, 563.114 147.015, 569.976 148.032 C 576.838 149.049, 582.576 149.758, 582.726 149.607 C 583.275 149.058, 585.274 137.941, 584.893 137.561 C 584.551 137.221, 548.060 132, 546.023 132 C 545.602 132, 544.962 134.363, 544.600 137.250 M 428.632 139.553 C 422.105 140.845, 416.526 142.141, 416.234 142.432 C 415.860 142.807, 427.672 204.027, 428.437 205.676 C 428.585 205.995, 441.098 203.236, 441.548 202.785 C 441.790 202.543, 441.018 197.501, 439.832 191.582 C 437.560 180.243, 437.775 179.057, 442.110 179.015 C 443.344 179.004, 453.968 189.827, 461.072 198.335 C 461.811 199.220, 477 197.020, 477 196.028 C 477 195.707, 472.663 190.818, 467.362 185.163 L 457.724 174.880 460.811 171.690 C 468.961 163.269, 468.849 152.028, 460.527 143.390 C 453.790 136.395, 448.067 135.707, 428.632 139.553 M 594.146 146.072 C 593.449 149.448, 593.018 152.330, 593.189 152.475 C 593.360 152.620, 596.987 153.503, 601.250 154.437 C 605.513 155.372, 609 156.494, 609 156.931 C 609 157.368, 605.811 168.624, 601.914 181.944 C 598.017 195.263, 594.979 206.275, 595.164 206.415 C 595.864 206.943, 607.389 209.944, 607.664 209.670 C 607.822 209.512, 611.127 198.654, 615.008 185.543 C 618.890 172.431, 622.282 161.353, 622.546 160.925 C 622.811 160.497, 626.422 161.288, 630.571 162.683 C 634.720 164.078, 638.233 165.057, 638.378 164.860 C 638.523 164.662, 639.603 161.921, 640.779 158.769 L 642.917 153.039 634.708 150.548 C 625.422 147.730, 603.057 141.587, 598.457 140.591 C 595.418 139.933, 595.413 139.939, 594.146 146.072 M 394 148.701 C 369.258 157.666, 359.952 161.442, 360.295 162.377 C 369.801 188.277, 382.413 221.667, 382.879 222.164 C 383.442 222.765, 417.399 209.934, 418.708 208.626 C 419.012 208.321, 418.272 205.635, 417.064 202.657 L 414.866 197.242 403.683 201.628 C 397.532 204.041, 392.047 205.842, 391.492 205.632 C 390.938 205.421, 389.629 202.830, 388.583 199.874 C 387.537 196.918, 386.504 193.998, 386.286 193.385 C 385.949 192.438, 393.032 189.154, 404.246 185.056 L 406.992 184.053 404.912 178.776 C 403.768 175.874, 402.713 173.380, 402.566 173.233 C 402.419 173.086, 397.680 174.797, 392.034 177.034 C 386.389 179.272, 381.677 180.968, 381.564 180.802 C 381.451 180.636, 380.394 177.816, 379.216 174.536 C 377.592 170.017, 377.367 168.389, 378.287 167.814 C 378.954 167.396, 384.225 165.390, 390 163.356 C 395.775 161.321, 400.648 159.549, 400.829 159.416 C 401.010 159.284, 400.365 156.661, 399.396 153.588 C 397.676 148.130, 397.076 147.587, 394 148.701 M 436.199 150.986 C 434.384 151.416, 432.675 151.991, 432.402 152.264 C 431.756 152.911, 434.101 166.244, 435.054 167.343 C 436.238 168.707, 447.300 165.983, 449.750 163.725 C 452.849 160.869, 452.817 155.116, 449.686 152.174 C 447.237 149.874, 442.614 149.467, 436.199 150.986 M 669.750 171.015 C 668.237 173.757, 667 176.219, 667 176.486 C 667 176.753, 669.813 178.380, 673.250 180.103 C 681.083 184.027, 682.261 184.963, 681.153 186.383 C 679.671 188.284, 658 229.752, 658 230.688 C 658 232.039, 669.207 237.639, 669.630 236.500 C 670.426 234.360, 693.079 193.521, 693.959 192.641 C 694.536 192.064, 697.351 193.250, 701.337 195.750 L 707.783 199.792 711.353 194.671 L 714.922 189.549 710.211 186.606 C 703.433 182.372, 673.986 165.997, 673.180 166.014 C 672.806 166.022, 671.263 168.273, 669.750 171.015 M 328.766 176.646 C 322.669 178.752, 316.225 184.295, 313.886 189.444 C 309.915 198.188, 312.792 208.036, 320.667 212.651 C 324.923 215.145, 325.566 215.236, 333.821 214.509 C 348.416 213.224, 350.798 213.350, 352.936 215.526 C 354.002 216.612, 355.175 218.734, 355.544 220.243 C 356.098 222.512, 355.607 223.593, 352.707 226.493 C 348.531 230.669, 343.784 231.191, 339.638 227.930 C 337.016 225.867, 336.996 225.867, 334.253 227.822 C 332.739 228.901, 330.636 230.740, 329.579 231.909 C 327.674 234.017, 327.682 234.059, 330.552 237.054 C 336.001 242.742, 345.803 244.064, 354.772 240.320 C 359.312 238.426, 366.038 232.139, 367.653 228.282 C 371.583 218.893, 367.157 206.191, 358.493 201.996 C 353.707 199.680, 352.570 199.660, 335.718 201.590 C 328.998 202.360, 326 200.616, 326 195.934 C 326 189.916, 336.364 185.589, 341.559 189.438 C 343.334 190.754, 343.864 190.522, 347.750 186.730 C 350.087 184.450, 352 182.246, 352 181.834 C 352 181.422, 350.021 179.925, 347.602 178.507 C 341.962 175.202, 334.951 174.509, 328.766 176.646 M 717.730 207.358 C 708.026 211.453, 700.957 218.155, 695.955 228 C 692.539 234.724, 692.075 245.978, 694.939 252.636 C 697.620 258.868, 704.718 265.960, 712 269.681 C 716.686 272.076, 718.684 272.490, 725.500 272.477 C 732.336 272.464, 734.293 272.047, 738.954 269.610 C 746.019 265.917, 753.725 257.951, 757.484 250.452 C 760.046 245.344, 760.471 243.365, 760.484 236.500 C 760.498 229.502, 760.132 227.836, 757.562 223.196 C 749.466 208.583, 731.631 201.490, 717.730 207.358 M 257.752 232.237 L 241.004 247.428 245.164 251.667 L 249.323 255.905 254.742 250.953 C 257.723 248.229, 260.522 246, 260.964 246 C 261.406 246, 269.563 254.505, 279.092 264.899 L 296.416 283.799 301.759 279.235 L 307.101 274.671 302.739 270.085 C 298.982 266.136, 281.889 247.417, 274.044 238.661 L 271.500 235.822 277.500 230.470 L 283.500 225.117 279.547 221.059 C 277.373 218.826, 275.348 217.010, 275.047 217.023 C 274.746 217.035, 266.963 223.882, 257.752 232.237 M 722.500 220.875 C 717.750 223.050, 709.467 231.638, 707.440 236.489 C 705.485 241.169, 705.630 244.610, 707.985 249.434 C 710.655 254.902, 715.791 258.235, 722.390 258.782 C 728.926 259.324, 733.878 257.026, 739.639 250.776 C 749.893 239.652, 749.029 226.581, 737.677 221.086 C 732.399 218.531, 727.761 218.466, 722.500 220.875 M 491.500 244.589 C 489.850 244.823, 483.325 245.715, 477 246.572 C 420.959 254.165, 367.744 280.303, 328.512 319.505 C 302.667 345.331, 280.178 380.985, 267.648 416 C 263.195 428.445, 256.744 452.979, 255.422 462.500 C 254.752 467.320, 254.795 467.443, 256.613 465.929 C 257.651 465.064, 268.625 455.591, 281 444.877 C 332.370 400.401, 345.378 391.033, 355.800 391.010 C 358.164 391.004, 361.539 391.740, 363.300 392.644 C 365.060 393.549, 377.303 404.911, 390.507 417.894 C 418.215 445.139, 424.095 450.391, 436.681 459.138 C 443.070 463.578, 447.356 467.492, 450.779 472.009 C 453.485 475.579, 458.642 481.252, 462.241 484.615 C 468.402 490.373, 478.371 497, 480.872 497 C 482.765 497, 482.127 493.175, 480.128 492.541 C 474.600 490.786, 453.636 464.907, 452.398 458.309 C 451.514 453.598, 454.243 448.128, 458.500 446.077 C 460.150 445.282, 465.100 444.451, 469.500 444.231 L 477.500 443.831 469.366 435.625 C 450.688 416.779, 443.091 397.295, 446.028 375.770 C 448.496 357.676, 454.398 346.346, 470.114 329.532 L 476.500 322.699 477.069 337.600 C 477.407 346.423, 478.173 353.724, 478.947 355.500 L 480.256 358.500 481.691 352.278 C 483.045 346.406, 488.733 334.344, 499.283 314.972 C 501.838 310.281, 504.675 303.531, 505.588 299.972 C 507.644 291.953, 507.069 280.937, 504.163 272.701 L 502.117 266.902 504.309 267.564 C 518.513 271.855, 537.043 291.792, 542.269 308.407 C 544.188 314.508, 544.493 317.667, 544.453 331 C 544.422 341.452, 543.887 348.780, 542.810 353.500 C 541.932 357.350, 541.356 360.653, 541.531 360.841 C 541.705 361.028, 543.846 359.340, 546.287 357.089 C 551.418 352.360, 556.900 342.037, 558.549 334 L 559.678 328.500 563.547 334.500 C 572.382 348.200, 578 366.859, 578 382.500 C 578 402.893, 571.685 418.336, 555.611 437.250 L 549.875 444 554.788 444 C 567.633 444, 574.519 451.035, 570.676 460.232 C 568.049 466.519, 552.399 486.258, 547.074 490 C 541.800 493.706, 540.045 497.721, 544.250 496.460 C 548.581 495.162, 555.747 489.933, 561.678 483.743 C 569.047 476.052, 572.503 470.827, 574.002 465.109 C 575.418 459.706, 587.370 447.085, 612 424.982 C 643.777 396.465, 651.557 391, 660.379 391 C 670.928 391, 676.443 394.574, 721.793 430.807 C 753.240 455.933, 767.668 466.665, 768.662 465.671 C 769.741 464.592, 762.735 434.127, 758.474 421.372 C 741.649 370.999, 711.121 327.977, 670.640 297.588 C 634.428 270.405, 594.790 254.105, 546.125 246.387 C 536.961 244.934, 498.104 243.655, 491.500 244.589 M 757.339 268.382 L 732.178 287.500 735.839 291.329 C 742.259 298.044, 741.344 298.306, 757.898 285.016 C 766.130 278.407, 773.155 273, 773.508 273 C 773.862 273, 769.821 281.428, 764.529 291.728 C 755.800 308.717, 755.023 310.675, 756.161 312.801 C 757.782 315.829, 759.266 315.554, 782 308.015 C 791.625 304.823, 799.599 302.300, 799.720 302.409 C 799.986 302.648, 773.453 324.869, 770.077 327.234 L 767.683 328.911 771.647 334.943 L 775.611 340.975 787.618 330.737 C 794.222 325.107, 805.347 315.642, 812.340 309.703 L 825.055 298.907 819.903 291.453 C 817.069 287.354, 814.455 284, 814.094 284 C 813.733 284, 805.464 286.667, 795.719 289.927 C 785.973 293.187, 778.011 295.549, 778.025 295.177 C 778.039 294.805, 781.578 286.625, 785.888 277 C 790.199 267.375, 793.665 259.500, 793.590 259.500 C 793.515 259.500, 790.989 257.197, 787.977 254.382 L 782.500 249.264 757.339 268.382 M 228.078 262.421 L 222.840 267.725 247.562 289.363 C 261.159 301.263, 272.558 310.975, 272.892 310.944 C 273.226 310.913, 275.385 308.498, 277.690 305.577 L 281.880 300.265 261.265 281.883 C 249.927 271.772, 239 262.064, 236.984 260.308 L 233.317 257.116 228.078 262.421 M 207.618 289.043 C 205.482 292.357, 203.907 295.224, 204.118 295.414 C 204.328 295.604, 209.147 298.754, 214.826 302.413 L 225.151 309.066 222.408 313.783 C 217.863 321.600, 215.003 326, 214.470 326 C 214.193 326, 209.225 323.024, 203.430 319.386 C 197.635 315.749, 192.747 312.936, 192.568 313.136 C 192.389 313.336, 190.607 316.074, 188.610 319.220 L 184.977 324.939 187.239 326.379 C 208.313 339.801, 239.376 359, 240.017 359 C 240.828 359, 247 348.923, 247 347.599 C 247 347.237, 242.387 343.966, 236.750 340.330 C 231.113 336.694, 226.352 333.597, 226.172 333.448 C 225.926 333.245, 234.180 318.095, 235.586 316.170 C 235.719 315.988, 240.479 318.944, 246.164 322.739 C 251.849 326.534, 256.988 329.926, 257.584 330.276 C 258.534 330.834, 267.727 319.238, 266.839 318.602 C 266.653 318.468, 258.175 313.018, 248 306.490 C 237.825 299.962, 225.531 292.006, 220.679 288.810 C 215.828 285.615, 211.778 283.004, 211.679 283.009 C 211.581 283.014, 209.753 285.729, 207.618 289.043 M 812.126 339.621 C 793.770 341.982, 778.553 344.113, 778.311 344.356 C 778.068 344.599, 779.279 347.590, 781.001 351.002 L 784.133 357.207 788.817 356.547 C 791.392 356.183, 794.179 355.691, 795.009 355.452 C 796.102 355.138, 797.790 357.838, 801.138 365.259 L 805.759 375.500 801.478 380 L 797.196 384.500 799.841 391.252 C 801.296 394.966, 802.763 397.891, 803.101 397.752 C 803.440 397.614, 814.602 386.911, 827.907 373.968 L 852.097 350.437 848.936 342.968 C 847.197 338.861, 845.713 335.461, 845.638 335.414 C 845.562 335.366, 830.482 337.260, 812.126 339.621 M 169.396 357.906 L 162.292 375.793 191.582 388.544 C 207.691 395.557, 221.238 401.307, 221.686 401.322 C 222.134 401.336, 225.947 393.057, 230.159 382.924 L 237.818 364.500 233.783 362.737 C 225.400 359.076, 226.017 358.664, 220.654 371.491 C 215.267 384.376, 216.273 383.754, 207.146 379.846 C 204.518 378.721, 202.994 377.490, 203.301 376.741 C 203.580 376.059, 205.481 371.541, 207.524 366.703 C 209.568 361.865, 211.073 357.740, 210.870 357.537 C 210.666 357.334, 208.140 356.237, 205.256 355.101 L 200.013 353.034 198.652 356.267 C 197.903 358.045, 196.249 361.975, 194.975 365 C 191.534 373.170, 191.582 373.139, 186.195 370.802 C 183.613 369.682, 181.120 368.416, 180.655 367.988 C 180.190 367.560, 181.874 362.134, 184.397 355.930 C 186.919 349.726, 188.875 344.569, 188.742 344.470 C 188.609 344.371, 186.475 343.597, 184 342.751 C 181.525 341.904, 178.825 340.943, 178 340.616 C 176.834 340.152, 174.920 343.998, 169.396 357.906 M 819.500 351.734 C 814 352.555, 809.358 353.355, 809.185 353.512 C 808.692 353.957, 814.949 366, 815.672 366 C 816.026 366, 819.957 362.767, 824.408 358.815 C 828.859 354.864, 832.928 351.264, 833.450 350.815 C 834.716 349.729, 831.511 349.940, 819.500 351.734 M 512.349 367.353 C 508.582 371.397, 503.786 377.585, 501.691 381.103 C 498.013 387.281, 497.893 387.774, 498.191 395.505 C 498.430 401.691, 499.093 404.707, 501.108 408.777 C 503.641 413.892, 503.655 414.026, 501.608 413.403 C 493.826 411.032, 488.221 406.165, 485.345 399.282 C 484.572 397.433, 483.537 396.168, 483.046 396.471 C 480.734 397.900, 478.766 407.403, 479.207 415.012 C 479.743 424.274, 482.610 430.859, 489.543 438.750 L 494.155 444 512.988 444 L 531.821 444 535.935 437.486 C 540.985 429.489, 543.464 420.556, 542.548 413.653 C 541.768 407.767, 540.424 404.863, 532.202 391.299 C 525.883 380.874, 521 368.571, 521 363.074 C 521 361.383, 520.594 360, 520.099 360 C 519.603 360, 516.116 363.309, 512.349 367.353 M 834.500 394.191 C 818.550 398.607, 805.315 402.392, 805.090 402.603 C 804.864 402.815, 805.495 405.681, 806.492 408.974 C 808.064 414.165, 808.584 414.896, 810.403 414.471 C 811.556 414.201, 816.976 412.888, 822.446 411.552 C 827.917 410.217, 832.759 409.351, 833.206 409.627 C 833.654 409.904, 829.274 415.937, 823.472 423.034 L 812.925 435.937 814.656 444.969 C 815.609 449.936, 816.642 454, 816.953 454 C 817.264 454, 818.144 452.988, 818.908 451.750 C 821.377 447.749, 843.295 420.824, 844.440 420.385 C 845.050 420.151, 852.963 423.307, 862.024 427.400 C 871.086 431.492, 878.604 434.539, 878.730 434.170 C 878.857 433.802, 877.948 430.214, 876.711 426.198 L 874.461 418.896 859.729 412.283 C 851.627 408.645, 845.128 405.538, 845.289 405.378 C 845.449 405.218, 851.001 403.886, 857.627 402.420 L 869.675 399.753 867.587 392.886 C 866.439 389.110, 865.050 386.052, 864.500 386.091 C 863.950 386.130, 850.450 389.775, 834.500 394.191 M 161.500 393.164 C 154.106 397.244, 149.025 406.248, 149.010 415.300 C 148.999 421.909, 150.589 425.635, 155.010 429.355 C 163.550 436.541, 172.497 434.798, 185.097 423.495 C 189.719 419.349, 194.576 415.676, 195.890 415.334 C 201.558 413.860, 206.982 418.950, 205.603 424.447 C 204.604 428.426, 199.720 433, 196.470 433 C 194.433 433, 193.932 433.382, 194.393 434.582 C 194.727 435.452, 195 438.152, 195 440.582 C 195 444.802, 195.131 445, 197.935 445 C 209.725 445, 221.329 428.362, 218.045 416.166 C 215.470 406.603, 207.813 400.660, 198.084 400.675 C 190.826 400.686, 186.547 402.936, 176.730 411.903 C 168.989 418.974, 165.775 420.375, 163.200 417.800 C 162.540 417.140, 162 415.080, 162 413.223 C 162 409.294, 166.555 404, 169.935 404 C 171.827 404, 171.963 403.601, 171.375 399.750 C 171.018 397.413, 170.322 394.712, 169.828 393.750 C 168.810 391.767, 164.573 391.469, 161.500 393.164 M 413 502.631 C 398.733 503.892, 380.225 507.199, 365.750 511.073 L 362 512.077 362 586.106 C 362 656.142, 362.094 660.107, 363.750 659.613 C 368.351 658.239, 386.594 655.032, 395.955 653.950 C 409.074 652.433, 438.201 653.218, 450.500 655.419 C 470.547 659.007, 489.721 666.293, 501.250 674.705 L 506 678.170 505.962 606.835 L 505.924 535.500 502.212 532.751 C 500.170 531.239, 495.575 527.755, 492 525.009 C 484.514 519.258, 472.794 513.254, 462 509.640 C 446.922 504.592, 425.494 501.527, 413 502.631 M 593 503.121 C 564.788 506.363, 544.832 514.481, 524.750 530.885 L 518 536.399 518 607.684 L 518 678.969 523.250 674.993 C 549.281 655.277, 602.773 647.656, 649.181 657.050 C 654.505 658.128, 659.562 659.278, 660.418 659.607 C 661.817 660.144, 662.001 652.689, 662.237 586.144 L 662.500 512.084 655 510.086 C 642.106 506.652, 627.958 504.135, 615.500 503.058 C 608.900 502.487, 602.825 502.074, 602 502.140 C 601.175 502.206, 597.125 502.647, 593 503.121 M 407.500 530.960 C 403.650 531.411, 396.337 532.551, 391.250 533.494 L 382 535.208 382 540.212 C 382 544.898, 382.144 545.182, 384.250 544.670 C 404.509 539.747, 429.969 539.004, 447.688 542.819 C 459.697 545.405, 472.856 549.899, 482.225 554.615 C 485.924 556.477, 489.186 558, 489.475 558 C 489.764 558, 490 555.814, 490 553.142 L 490 548.285 480.750 544.043 C 468.394 538.378, 456.337 534.418, 445.902 532.598 C 434.954 530.689, 416.526 529.903, 407.500 530.960 M 592.500 530.656 C 571.726 533.126, 561.595 535.810, 545.250 543.173 L 534 548.241 534 553.120 C 534 555.804, 534.180 558, 534.400 558 C 534.621 558, 538.712 556.202, 543.492 554.004 C 565.095 544.070, 580.778 540.555, 603.500 540.555 C 618.165 540.555, 626.897 541.547, 639.750 544.670 C 641.856 545.182, 642 544.898, 642 540.212 L 642 535.208 633.090 533.570 C 616.051 530.439, 602.506 529.467, 592.500 530.656 M 404.032 559.018 C 400.474 559.518, 394.062 560.683, 389.782 561.608 L 382 563.289 382 568.261 C 382 572.932, 382.137 573.196, 384.250 572.623 C 401.086 568.058, 429.298 566.989, 445 570.321 C 456.836 572.833, 472.315 578.130, 481.901 582.950 L 490 587.022 490 581.656 L 490 576.290 481.250 572.233 C 470.557 567.275, 458.946 563.463, 446.724 560.896 C 436.058 558.657, 413.633 557.670, 404.032 559.018 M 590 558.561 C 588.625 558.796, 584.350 559.497, 580.500 560.119 C 569.875 561.834, 555.041 566.522, 543.959 571.666 L 534 576.288 534 581.655 L 534 587.022 542.138 582.931 C 553.244 577.347, 571.364 571.494, 583.934 569.430 C 596.997 567.286, 616.987 567.919, 631.360 570.933 C 636.783 572.070, 641.396 573, 641.610 573 C 641.825 573, 642 570.801, 642 568.114 L 642 563.227 630.750 561.046 C 620.137 558.989, 596.074 557.522, 590 558.561 M 403.183 587.004 C 399.708 587.493, 393.521 588.638, 389.433 589.547 L 382 591.201 382 596.207 C 382 600.255, 382.288 601.103, 383.505 600.636 C 394.934 596.251, 428.204 594.962, 444 598.292 C 458.446 601.338, 473.066 606.669, 489.250 614.790 C 489.663 614.997, 490 612.848, 490 610.015 L 490 604.863 480.750 600.550 C 469.637 595.368, 455.565 590.763, 444 588.524 C 433.899 586.568, 412.052 585.754, 403.183 587.004 M 588 587.088 C 572.222 589.113, 555.632 594.149, 541.750 601.127 L 534 605.022 534 610.011 C 534 612.755, 534.191 615, 534.425 615 C 534.659 615, 538.942 612.964, 543.942 610.475 C 554.533 605.205, 567.013 600.876, 579 598.316 C 594.672 594.970, 624.415 596.095, 640.250 600.633 C 641.748 601.062, 642 600.425, 642 596.212 L 642 591.289 634.250 589.646 C 617.053 585.999, 602.678 585.204, 588 587.088 M 399.291 615.488 C 394.227 616.265, 388.264 617.390, 386.041 617.989 L 382 619.077 382 624.146 C 382 628.233, 382.289 629.103, 383.496 628.640 C 394.688 624.345, 428.394 623.064, 444 626.340 C 456.450 628.954, 472.340 634.491, 481.750 639.494 L 490 643.880 490 638.377 L 490 632.873 480.750 628.537 C 455.003 616.466, 424.631 611.601, 399.291 615.488 M 590.500 614.689 C 573.227 616.930, 557.729 621.528, 543.250 628.706 L 534 633.293 534 638.615 L 534 643.937 539.750 640.595 C 552.348 633.273, 570.215 627.577, 588.935 624.915 C 602.230 623.025, 628.647 624.897, 640.137 628.543 C 641.784 629.066, 642 628.558, 642 624.148 L 642 619.160 634.848 617.534 C 621.133 614.414, 602.051 613.190, 590.500 614.689 M 259.500 677.196 C 254 682.119, 236.709 696.126, 221.075 708.323 C 205.442 720.520, 191.583 731.400, 190.278 732.500 L 187.906 734.500 197.333 747.500 C 249.129 818.933, 326.635 870.105, 416.947 892.500 C 431.861 896.198, 446.914 899.014, 466 901.677 C 484.381 904.242, 541.003 904.242, 560 901.677 C 600.282 896.239, 640.400 885.172, 675.400 869.843 C 735.314 843.601, 791.260 798.247, 827.390 746.627 C 831.575 740.647, 835 735.379, 835 734.920 C 835 734.044, 833.338 732.689, 802 708.005 C 791.275 699.557, 776.012 687.255, 768.082 680.667 L 753.664 668.689 751.582 671.185 C 727.344 700.238, 708.508 717.408, 681.162 735.379 C 635.936 765.101, 588.851 781.461, 535.696 785.925 C 493.239 789.490, 443.863 782.566, 407.132 767.895 C 355.957 747.456, 314.862 719.551, 282.105 683 C 277.915 678.325, 273.365 673.093, 271.994 671.373 L 269.500 668.246 259.500 677.196 M 451.450 720.407 C 447.268 722.228, 443 727.551, 443 730.945 C 443 733.567, 443.246 733.726, 447.053 733.578 C 450.277 733.452, 451.356 732.916, 452.326 730.960 C 454.546 726.484, 462 727.470, 462 732.238 C 462 735.052, 456.119 742.724, 448.497 749.854 C 442.873 755.115, 442 756.406, 442 759.466 L 442 763 457.500 763 L 473 763 473 759 L 473 755 464.336 755 L 455.672 755 462.354 748.078 C 472.015 738.071, 474.068 731.904, 469.974 725.190 C 466.582 719.625, 458.208 717.463, 451.450 720.407 M 487.004 721.185 C 479.120 725.245, 475.581 735.874, 477.913 748.489 C 479.878 759.116, 486.216 764.561, 495.705 763.775 C 501.810 763.268, 505.493 761, 508.500 755.895 C 511.253 751.221, 511.430 732.199, 508.765 727.329 C 504.596 719.709, 495.084 717.023, 487.004 721.185 M 527.450 720.407 C 520.183 723.572, 516.357 732.775, 517.231 744.989 C 518.344 760.533, 529.664 768.294, 542.026 761.987 C 548.398 758.736, 550.500 753.654, 550.500 741.500 C 550.500 732.417, 550.251 731.076, 547.778 726.870 C 543.665 719.874, 534.999 717.119, 527.450 720.407 M 571 719.939 C 566.846 720.782, 559.467 724.450, 558.334 726.236 C 557.399 727.710, 557.049 735.002, 557.914 734.996 C 558.236 734.994, 559.973 734.094, 561.774 732.996 C 563.575 731.898, 565.150 730.999, 565.274 730.999 C 565.398 730.998, 565.357 738.198, 565.181 746.999 L 564.862 763 569.931 763 L 575 763 575 741 C 575 728.900, 574.888 719.052, 574.750 719.115 C 574.612 719.178, 572.925 719.549, 571 719.939 M 490.851 729.023 C 488.550 730.367, 486.631 739.234, 487.342 745.237 C 488.116 751.772, 490.248 755.004, 493.773 754.985 C 499.279 754.954, 501 751.746, 501 741.516 C 501 732.126, 499.227 727.986, 495.224 728.030 C 493.726 728.047, 491.758 728.494, 490.851 729.023 M 529.273 730.710 C 526.638 734.738, 526.728 749.940, 529.405 752.896 C 531.846 755.592, 536.155 755.592, 538.595 752.895 C 540.181 751.143, 540.500 749.232, 540.500 741.500 C 540.500 733.768, 540.181 731.857, 538.595 730.105 C 535.843 727.064, 531.473 727.348, 529.273 730.710 M 732.655 739.303 L 727.809 743.520 738.870 758.238 C 744.954 766.332, 750.323 774.428, 750.802 776.228 C 753.397 785.977, 741.354 793.950, 733.385 787.759 C 729.521 784.756, 728.466 783.466, 718.337 769.334 L 709.616 757.168 705.106 760.334 C 702.626 762.075, 700.161 763.799, 699.629 764.163 C 698.467 764.961, 713.352 786.031, 720.761 794.078 C 728.966 802.988, 738.595 805.485, 748.263 801.208 C 758.164 796.828, 764.944 787.814, 764.968 779 C 764.986 772.554, 761.736 766.366, 750.520 751.491 C 736.651 733.095, 738.409 734.295, 732.655 739.303 M 279.939 740.314 C 267.951 743.681, 257 758.092, 257 770.500 C 257 777.303, 260.500 785.355, 265.826 790.807 C 279.254 804.549, 297.074 804.610, 309.351 790.955 C 318.349 780.946, 320.720 772.427, 317.545 761.505 C 315.299 753.780, 306.075 744.173, 298.500 741.670 C 291.310 739.295, 285.165 738.846, 279.939 740.314 M 281.842 754.021 C 276.961 756.599, 272.481 762.211, 270.957 767.655 C 268.645 775.912, 273.142 784.361, 281.561 787.577 C 285.354 789.025, 286.696 789.108, 290.049 788.103 C 299.805 785.180, 307.291 773.507, 304.960 764.851 C 302.128 754.335, 291.061 749.151, 281.842 754.021 M 336.821 770.372 C 336.206 771.542, 331.108 781.050, 325.494 791.500 C 319.879 801.950, 314.093 812.853, 312.636 815.730 L 309.987 820.960 314.960 823.480 C 317.695 824.866, 320.359 826, 320.880 826 C 321.400 826, 323.700 822.513, 325.990 818.250 C 328.279 813.987, 330.517 810.124, 330.961 809.665 C 331.406 809.206, 333.172 809.555, 334.885 810.441 C 337.934 812.017, 338 812.204, 338.009 819.276 C 338.013 823.249, 338.288 828.750, 338.619 831.500 C 339.219 836.492, 339.231 836.505, 345.596 839.602 L 351.971 842.704 351.330 829.352 L 350.690 816 353.688 816 C 358.729 816, 365.121 811.912, 367.697 807.040 C 371.831 799.223, 370.218 788.122, 364.151 782.635 C 363.016 781.609, 356.655 777.952, 350.014 774.507 C 338.181 768.369, 337.917 768.287, 336.821 770.372 M 664.739 782.130 C 661.583 783.726, 659 785.294, 659 785.614 C 659 785.935, 664.684 797.065, 671.630 810.348 C 678.577 823.632, 684.680 835.310, 685.192 836.300 C 686.035 837.928, 687.712 837.273, 702.812 829.415 C 711.990 824.638, 719.619 820.634, 719.765 820.517 C 719.977 820.346, 715.374 811.448, 714.404 810.156 C 714.262 809.967, 709.453 812.330, 703.718 815.406 C 697.982 818.483, 693.003 821, 692.653 821 C 692.303 821, 689.575 816.163, 686.590 810.250 C 683.606 804.337, 678.760 794.939, 675.821 789.364 L 670.479 779.228 664.739 782.130 M 340.230 791.487 L 337.031 797.974 339.266 799.436 C 344.687 802.982, 349.135 804.187, 352.168 802.930 C 357.350 800.784, 358.674 794.841, 354.750 791.343 C 352.320 789.177, 345.344 785, 344.157 785 C 343.757 785, 341.990 787.919, 340.230 791.487 M 641.308 791.438 C 638.452 792.600, 635.874 793.792, 635.579 794.087 C 635.285 794.382, 637.959 803.060, 641.522 813.372 C 645.085 823.683, 648 833.382, 648 834.925 C 648 843.541, 634.423 848.167, 629.078 841.373 C 628.008 840.012, 624.341 830.484, 620.929 820.199 C 617.518 809.915, 614.641 801.391, 614.537 801.257 C 613.900 800.441, 601.946 805.425, 602.289 806.363 C 602.518 806.988, 605.499 815.908, 608.914 826.185 C 612.736 837.685, 616.247 846.422, 618.048 848.907 C 622.075 854.467, 627.679 857.144, 635.358 857.178 C 645.981 857.224, 655.205 852.339, 658.898 844.711 C 662.507 837.257, 661.822 831.816, 654.641 810.872 C 651.143 800.671, 647.881 791.650, 647.391 790.825 C 646.614 789.518, 645.833 789.597, 641.308 791.438 M 381.614 796.555 C 380.640 799.646, 379.990 802.305, 380.171 802.462 C 380.352 802.620, 383.762 803.768, 387.750 805.014 C 392.904 806.624, 394.979 807.744, 394.929 808.889 C 394.890 809.775, 391.366 820.175, 387.098 832 L 379.338 853.500 384.419 855.189 C 387.213 856.118, 390.175 856.900, 391 856.926 C 392.069 856.961, 394.617 850.833, 399.861 835.618 C 403.909 823.871, 407.552 813.725, 407.957 813.070 C 408.502 812.188, 410.593 812.544, 416.015 814.438 C 420.042 815.845, 423.426 816.884, 423.534 816.748 C 424.126 816, 427.148 805.823, 426.852 805.572 C 426.658 805.408, 417.275 802.221, 406 798.490 C 394.725 794.758, 385.024 791.532, 384.443 791.320 C 383.862 791.108, 382.589 793.464, 381.614 796.555 M 584.774 809.238 L 579.048 810.220 571.774 822.078 C 567.773 828.600, 564.248 833.950, 563.940 833.968 C 563.633 833.986, 562.782 829.282, 562.049 823.516 C 560.802 813.698, 560.583 813.060, 558.609 813.462 C 557.449 813.698, 554.362 814.168, 551.750 814.507 C 549.138 814.845, 547 815.241, 547 815.387 C 547 815.532, 549.025 828.309, 551.500 843.780 C 553.975 859.252, 556 872.306, 556 872.789 C 556 873.637, 567.864 872.470, 568.804 871.529 C 569.052 871.281, 568.747 867.667, 568.127 863.498 C 566.629 853.424, 566.678 852.613, 568.943 849.861 L 570.887 847.500 581.323 857.862 L 591.760 868.225 598.925 866.944 C 602.866 866.240, 606.280 865.355, 606.513 864.978 C 606.906 864.343, 600.401 857.828, 583.782 842.209 L 577.087 835.917 583.899 825.209 C 587.646 819.319, 591.463 813.038, 592.381 811.250 C 594.315 807.487, 594.581 807.557, 584.774 809.238 M 439.048 816.673 C 436.607 820.978, 429.523 833.237, 423.304 843.916 C 417.086 854.594, 412.111 863.401, 412.249 863.487 C 412.877 863.875, 423.308 866, 424.587 866 C 425.376 866, 427.236 863.525, 428.720 860.499 C 430.564 856.739, 431.906 855.126, 432.959 855.404 C 433.806 855.628, 438.623 856.576, 443.661 857.512 C 453.592 859.356, 453.956 859.681, 453.986 866.691 C 453.994 868.446, 454.563 870.246, 455.250 870.691 C 456.333 871.392, 468.259 874.018, 468.640 873.639 C 468.748 873.532, 462.139 834.868, 458.511 814.383 C 458.018 811.600, 457.506 811.203, 453.730 810.672 C 451.403 810.346, 448.147 809.802, 446.492 809.463 C 443.601 808.871, 443.314 809.149, 439.048 816.673 M 503.827 815.044 C 492.648 816.375, 482.800 824.723, 479.888 835.337 C 477.820 842.876, 478.526 853.194, 481.577 859.991 C 486.527 871.021, 495.309 876.391, 508.500 876.453 C 515.288 876.485, 517.368 876.065, 522.230 873.682 C 529.003 870.361, 533.263 865.552, 536.124 858 C 538.928 850.595, 538.373 837.850, 534.929 830.551 C 529.282 818.587, 518.638 813.280, 503.827 815.044 M 443.228 833.275 C 440.353 838.651, 438 843.410, 438 843.852 C 438 844.603, 450.975 847.441, 451.466 846.797 C 451.590 846.634, 450.964 841.325, 450.074 835 L 448.456 823.500 443.228 833.275 M 501.280 828.091 C 495.273 831.064, 491.589 838.641, 492.180 846.808 C 492.727 854.375, 495.652 859.915, 500.588 862.734 C 505.580 865.584, 510.423 865.589, 515.980 862.750 C 521.379 859.992, 523.979 855.326, 524.730 847.045 C 525.193 841.938, 524.884 840.284, 522.596 835.607 C 520.478 831.278, 519.032 829.710, 515.645 828.070 C 510.235 825.451, 506.601 825.456, 501.280 828.091" stroke="none" fill="#000000" fill-rule="evenodd"/>
</svg>