<svg xmlns="http://www.w3.org/2000/svg" width="1024" height="1024" viewBox="0 0 1024 1024" version="1.1">
	<path d="M 484 78.615 C 444.664 82.193, 428.643 84.563, 406.621 90.063 C 333.041 108.438, 267.907 145.264, 213.943 199 C 155.891 256.805, 114.817 335.481, 99.610 418 C 94.716 444.557, 93.564 459.011, 93.553 494 C 93.543 527.812, 94.425 539.534, 99.084 567.500 C 102.287 586.728, 111.510 621.529, 117.626 637.468 C 117.963 638.345, 115.858 638.869, 110.253 639.301 C 105.939 639.634, 101.638 640.202, 100.696 640.563 C 97.387 641.833, 97.798 645.287, 102.537 656.012 C 110.443 673.904, 120.848 691.127, 132.957 706.365 L 139.096 714.091 135.840 718.295 C 128.508 727.761, 114.087 745.057, 106.413 753.589 C 97.560 763.430, 96.281 765.789, 98.029 769.054 C 100.439 773.558, 119.630 780.314, 141 784.182 C 149.733 785.763, 158.228 786.380, 176.303 786.747 L 200.105 787.231 205.236 792.866 C 247.016 838.744, 299.081 875.086, 355.500 897.752 C 394.222 913.309, 431.534 922.648, 473 927.162 C 490.584 929.077, 537.228 928.760, 555.500 926.601 C 634.378 917.284, 705.185 888.083, 765.401 840.038 C 781.742 827, 800.644 809.444, 811.525 797.198 L 820.500 787.097 838.789 787.048 C 867.091 786.974, 886.449 784.243, 907.198 777.398 C 919.484 773.345, 923 771.065, 923 767.150 C 923 763.830, 921.689 761.907, 911.646 750.500 C 902.249 739.826, 884.056 717.310, 883.357 715.487 C 883.086 714.782, 886.401 709.546, 890.724 703.852 C 901.057 690.241, 908.907 677.426, 916.665 661.500 C 923.900 646.650, 924.609 642.570, 920.250 640.891 C 918.737 640.309, 914.215 639.578, 910.200 639.268 C 905.491 638.904, 903.048 638.313, 903.318 637.602 C 909.802 620.507, 918.619 587.527, 921.927 568 C 926.629 540.239, 927.470 528.897, 927.485 493 C 927.501 456.869, 926.950 449.142, 922.392 421.500 C 904.076 310.424, 839.694 210.450, 746.649 148.604 C 690.198 111.081, 626.225 88.012, 557.687 80.464 C 544.218 78.981, 493.872 77.718, 484 78.615 M 467.304 101.478 C 407.650 107.664, 349.602 127.157, 300.418 157.519 C 242.469 193.292, 191.793 247.321, 160.214 307 C 128.759 366.442, 113.786 427.478, 113.847 496 C 113.889 543.621, 121.212 586.106, 136.305 626.305 L 141.635 640.500 207.947 640.729 C 244.419 640.855, 274.614 640.738, 275.048 640.470 C 275.483 640.202, 274.185 636.949, 272.164 633.241 C 237.232 569.142, 228.236 496.876, 246.519 427.246 C 251.423 408.571, 256.910 393.999, 266.003 375.500 C 302.838 300.562, 371.965 246.168, 452.040 229.115 C 490.856 220.849, 536.828 221.398, 573.500 230.568 C 620.600 242.345, 659.417 263.008, 695.189 295.346 C 748.751 343.766, 779.094 408.806, 782.969 483.500 C 785.671 535.569, 774.426 586.238, 750.278 630.805 C 747.803 635.373, 746.090 639.423, 746.472 639.805 C 746.854 640.187, 776.941 640.500, 813.333 640.500 L 879.500 640.500 884.175 628 C 908.050 564.164, 913.912 489.179, 900.567 418.353 C 888.387 353.717, 861.601 295.454, 820.712 244.660 C 803.838 223.698, 772.922 194.096, 751 177.910 C 694.480 136.179, 633.741 112.207, 559.663 102.393 C 542.797 100.158, 485.505 99.591, 467.304 101.478 M 506.518 131.250 C 505.224 135.108, 496 176.982, 496 178.996 C 496 180.384, 495.644 180.999, 495.158 180.450 C 494.694 179.927, 490.338 168.547, 485.477 155.161 L 476.639 130.822 473.695 131.411 C 472.075 131.735, 468.733 132, 466.268 132 C 462.394 132, 461.883 132.237, 462.501 133.750 C 462.894 134.713, 468.381 149, 474.695 165.500 C 481.009 182, 486.305 195.633, 486.466 195.795 C 486.626 195.957, 490.788 195.786, 495.714 195.414 L 504.672 194.738 512.840 163.119 C 517.333 145.729, 521.007 131.162, 521.004 130.750 C 520.996 129.400, 506.976 129.883, 506.518 131.250 M 534.649 134.679 C 534.347 136.781, 533.827 141.650, 533.494 145.500 C 532.638 155.417, 529.111 187.901, 528.491 191.584 L 527.972 194.667 546.736 196.948 C 557.056 198.202, 565.935 199.289, 566.467 199.364 C 567.338 199.487, 569.246 187.964, 568.487 187.168 C 568.201 186.869, 546.752 184.031, 544.613 184.009 C 543.741 184, 544.332 171.335, 545.247 170.419 C 545.505 170.162, 550.057 170.484, 555.364 171.136 C 560.670 171.788, 565.219 172.114, 565.474 171.860 C 565.728 171.606, 566.229 168.900, 566.588 165.848 L 567.240 160.298 559.468 159.593 C 545.684 158.344, 546.354 158.754, 547.003 151.971 C 547.311 148.743, 547.774 145.922, 548.032 145.701 C 548.289 145.480, 553.675 145.865, 560 146.557 C 566.325 147.248, 571.578 147.740, 571.673 147.651 C 571.768 147.561, 572.155 144.752, 572.533 141.409 L 573.221 135.331 557.860 133.630 C 549.412 132.694, 540.857 131.688, 538.850 131.393 C 535.262 130.867, 535.190 130.923, 534.649 134.679 M 585.512 138.267 C 583.885 143.126, 582.987 148.373, 583.677 148.987 C 584.130 149.391, 587.763 150.545, 591.750 151.553 C 595.737 152.561, 599 153.708, 599 154.102 C 599 154.496, 596.108 164.871, 592.573 177.159 C 589.038 189.447, 586.001 200.366, 585.823 201.424 C 585.557 203.005, 586.634 203.685, 591.877 205.247 C 595.384 206.292, 598.573 206.776, 598.963 206.323 C 599.353 205.870, 602.510 194.925, 605.980 182 C 609.450 169.075, 612.448 158.207, 612.642 157.849 C 612.836 157.491, 616.259 158.046, 620.248 159.082 C 624.236 160.118, 627.775 160.973, 628.111 160.983 C 628.703 160.999, 632.188 149.845, 631.729 149.405 C 631.603 149.285, 621.825 146.649, 610 143.548 C 598.175 140.446, 587.920 137.712, 587.212 137.471 C 586.504 137.231, 585.739 137.589, 585.512 138.267 M 418.808 141.843 C 412.927 143.305, 407.858 144.769, 407.544 145.098 C 407.229 145.426, 409.644 157.801, 412.911 172.598 C 416.178 187.394, 419.166 201.222, 419.551 203.327 C 420.149 206.592, 420.563 207.076, 422.376 206.625 C 423.544 206.334, 426.422 205.790, 428.772 205.416 C 431.122 205.043, 433.269 204.374, 433.544 203.929 C 433.819 203.484, 433.134 198.952, 432.022 193.857 C 429.508 182.338, 429.510 182.231, 432.250 181.719 C 434.034 181.386, 436.468 183.333, 444 191.117 L 453.500 200.936 461 199.359 C 465.125 198.492, 468.665 197.628, 468.868 197.440 C 469.070 197.252, 464.397 192.456, 458.485 186.782 L 447.735 176.465 451.278 172.922 C 455.858 168.342, 457.331 163.018, 455.984 155.914 C 452.973 140.039, 442.310 136.004, 418.808 141.843 M 368.500 158.040 C 359.700 161.825, 352.114 165.068, 351.642 165.247 C 350.855 165.545, 373.392 222.406, 375.068 224.351 C 375.472 224.819, 383.736 222.119, 393.433 218.351 C 413.009 210.744, 412.006 211.766, 408.263 203.236 L 406.500 199.220 395.500 203.577 C 389.450 205.974, 384.115 207.821, 383.644 207.682 C 382.817 207.438, 377.746 195.912, 378.251 195.425 C 378.388 195.292, 382.663 193.521, 387.750 191.487 C 392.837 189.454, 397 187.447, 397 187.028 C 397 186.609, 396.055 183.993, 394.900 181.214 L 392.800 176.161 385.150 179.435 C 372.592 184.808, 373.584 184.909, 370.997 177.993 C 369.751 174.661, 368.905 171.800, 369.116 171.635 C 369.327 171.470, 374.225 169.370, 380 166.969 C 385.775 164.568, 390.622 162.533, 390.771 162.447 C 391.545 162.001, 386.556 151.012, 385.611 151.079 C 385 151.123, 377.300 154.256, 368.500 158.040 M 425.750 152.716 C 424.238 152.945, 423.004 153.440, 423.008 153.816 C 423.024 155.212, 426.760 170.094, 427.207 170.540 C 427.908 171.241, 436.761 168.387, 439.548 166.560 C 441.522 165.267, 442 164.115, 442 160.651 C 442 153.092, 437.564 150.927, 425.750 152.716 M 660.482 168.036 C 659.043 170.875, 658.008 173.326, 658.183 173.482 C 658.357 173.638, 661.763 175.399, 665.750 177.395 C 669.737 179.392, 673 181.276, 673 181.582 C 673 181.979, 653.182 218.666, 648.431 227.063 C 648.256 227.373, 650.963 229.032, 654.447 230.750 L 660.780 233.873 673.053 211.187 C 679.803 198.709, 685.431 188.359, 685.560 188.186 C 685.689 188.013, 689.037 189.504, 693 191.500 C 696.963 193.496, 700.330 194.987, 700.482 194.814 C 700.635 194.641, 701.944 192.142, 703.391 189.261 L 706.023 184.021 685.762 173.770 C 674.618 168.132, 664.960 163.373, 664.299 163.195 C 663.639 163.018, 661.921 165.196, 660.482 168.036 M 318.883 182.257 C 310.314 186.693, 306 192.336, 306 199.110 C 306 205.533, 307.837 209.771, 312.330 213.716 C 316.485 217.365, 321.103 218.524, 327.812 217.602 C 342.271 215.617, 344.651 215.651, 346.873 217.873 C 351.058 222.058, 349.256 227.880, 343.003 230.382 C 339.388 231.829, 338.566 231.845, 335.436 230.538 C 332.004 229.104, 331.823 229.149, 327.386 232.535 C 324.889 234.441, 322.353 236, 321.749 236 C 319.965 236, 324.964 240.755, 328.523 242.444 C 333.123 244.627, 343.449 244.433, 348.661 242.067 C 350.950 241.027, 354.634 238.366, 356.847 236.153 C 363.119 229.881, 364.563 222.042, 360.923 214.018 C 358.346 208.336, 356.470 206.282, 351.579 203.786 C 347.248 201.576, 341.440 201.667, 330.687 204.116 C 323.363 205.783, 319.678 204.250, 319.195 199.334 C 318.748 194.780, 322.905 191.738, 328.980 192.175 C 332.815 192.451, 334.220 191.982, 338.251 189.080 C 342.853 185.767, 342.947 185.598, 341.251 183.692 C 336.335 178.167, 327.836 177.622, 318.883 182.257 M 707.097 203.119 C 699.760 206.018, 693.680 212.361, 689.205 221.784 C 686.020 228.490, 685.547 230.446, 685.525 236.990 C 685.503 243.451, 685.909 245.238, 688.430 249.788 C 691.991 256.217, 698.016 261.934, 705.160 265.662 C 712.437 269.461, 723.247 269.643, 729.998 266.080 C 736.275 262.767, 745.215 253.299, 748.628 246.349 C 751.071 241.373, 751.497 239.306, 751.483 232.500 C 751.463 223.306, 749.602 218.778, 742.820 211.421 C 734.144 202.008, 718.881 198.461, 707.097 203.119 M 713.105 216.635 C 706.829 219.763, 702.602 225.122, 700.378 232.771 C 698.267 240.034, 699.207 244.442, 703.858 249.093 C 711.415 256.650, 720.226 256.520, 728.682 248.726 C 735.952 242.024, 738.830 234.647, 737.128 227.072 C 735.978 221.957, 732.901 218.383, 727.500 215.890 C 722.086 213.391, 719.328 213.534, 713.105 216.635 M 251.029 238.654 L 234.835 255.308 239.408 259.882 L 243.982 264.455 249.757 258.740 L 255.533 253.025 268.499 265.115 C 275.631 271.765, 283.986 279.389, 287.066 282.057 L 292.666 286.908 297.392 282.110 L 302.118 277.311 298.309 273.982 C 296.214 272.151, 288.013 264.459, 280.084 256.889 L 265.669 243.125 271.408 236.926 L 277.148 230.726 272.866 226.363 C 270.511 223.963, 268.278 222, 267.904 222 C 267.530 222, 259.937 229.494, 251.029 238.654 M 494 244.046 C 442.615 247.286, 391.874 266.793, 352.468 298.455 C 311.671 331.237, 282.339 375.055, 268.072 424.536 C 265.859 432.208, 261.804 451.137, 262.272 451.605 C 262.675 452.009, 332.190 383.101, 345.604 369 C 353.425 360.779, 358.111 356.716, 362.037 354.750 C 370.985 350.270, 379.355 351.202, 386.840 357.513 C 390.602 360.685, 393.652 364.695, 406.991 384 C 418.432 400.558, 434.554 422.101, 445.668 435.682 C 450.251 441.281, 454 446.056, 454 446.292 C 454 446.527, 452.437 448.377, 450.527 450.403 C 439.791 461.787, 446.133 478.948, 464.050 486.994 C 466.035 487.885, 466.651 488.956, 466.826 491.820 C 467.157 497.210, 469.732 499.982, 478.964 504.886 C 486.797 509.046, 487.184 509.149, 486.496 506.886 C 486.097 505.574, 484.969 503.600, 483.990 502.500 C 480.907 499.036, 478.008 493.587, 478.004 491.250 L 478 489 511.500 489 L 545 489 545 491.566 C 545 494.696, 543.604 497.467, 539.853 501.785 C 538.284 503.591, 537 505.920, 537 506.959 C 537 508.622, 537.866 508.377, 544.250 504.908 C 553.283 499.999, 557 496.132, 557 491.643 C 557 488.601, 557.574 487.976, 563.750 484.305 C 567.462 482.098, 571.921 478.446, 573.658 476.189 C 579.404 468.724, 579.900 458.956, 574.859 452.548 L 572.748 449.865 575.124 448.207 C 582.886 442.791, 595.520 432.809, 606.268 423.600 C 634.501 399.411, 638.982 396.610, 649.550 396.544 C 662.572 396.463, 672.553 403.295, 705 434.501 C 715.725 444.816, 731.250 459.343, 739.500 466.784 C 747.750 474.225, 756.413 482.067, 758.750 484.211 L 763 488.110 763 482.606 C 763 474.796, 760.428 455.627, 757.426 441.071 C 742.381 368.107, 692.115 304.334, 622.550 269.950 C 583.106 250.455, 537.647 241.294, 494 244.046 M 750.500 265.491 C 737.300 275.648, 726.500 284.327, 726.500 284.777 C 726.500 285.228, 728.300 287.669, 730.500 290.201 L 734.500 294.806 750.867 281.853 C 759.869 274.729, 767.370 269.036, 767.535 269.202 C 767.701 269.367, 763.270 278.586, 757.689 289.689 C 752.107 300.791, 747.788 310.121, 748.090 310.423 C 748.392 310.725, 757.774 308.933, 768.940 306.440 C 780.106 303.947, 789.413 302.080, 789.623 302.290 C 789.833 302.500, 783.479 307.986, 775.503 314.481 C 767.526 320.976, 761 326.522, 761 326.807 C 761 327.200, 765.984 335.507, 767.628 337.855 C 767.764 338.050, 778.480 329.338, 791.441 318.496 L 815.006 298.784 812.887 295.012 C 811.721 292.938, 809.807 290.057, 808.633 288.610 L 806.500 285.980 788.581 289.535 C 778.725 291.491, 770.288 293.322, 769.831 293.605 C 768.163 294.635, 769.162 292.394, 777.683 275.985 L 786.367 259.264 781.033 253.132 C 778.100 249.759, 775.430 247.005, 775.100 247.012 C 774.770 247.019, 763.700 255.334, 750.500 265.491 M 223.581 270.686 C 221.639 273.333, 220.060 275.725, 220.073 276 C 220.087 276.275, 231.213 285.380, 244.799 296.232 L 269.500 315.965 273.729 311.232 C 276.056 308.630, 277.941 306.275, 277.919 306 C 277.874 305.442, 229.202 266.682, 227.923 266.186 C 227.478 266.013, 225.524 268.038, 223.581 270.686 M 492 271.565 C 492 271.777, 492.907 273.425, 494.017 275.226 C 499.958 284.872, 501.699 301.293, 498.036 313.145 C 495.432 321.571, 491.502 327.554, 483.912 334.647 C 465.725 351.644, 462.428 355.085, 458.017 361.674 C 442.540 384.791, 444.700 415.697, 463.437 439.232 L 468.001 444.964 484.501 444.773 C 493.575 444.669, 501 444.442, 501 444.270 C 501 444.098, 499.905 442.279, 498.568 440.229 C 492.497 430.923, 489.477 413.490, 491.969 402.141 C 493.759 393.989, 498.397 385.906, 505.259 378.980 C 508.558 375.649, 511.400 373.066, 511.573 373.239 C 511.746 373.413, 511.476 375.388, 510.972 377.629 C 509.823 382.745, 511.163 391.438, 513.940 396.883 C 515.082 399.121, 518.915 404.170, 522.458 408.104 C 526.002 412.039, 529.823 417.220, 530.950 419.618 C 533.632 425.322, 533.644 433.985, 530.978 439.859 C 529.890 442.257, 529 444.415, 529 444.655 C 529 444.895, 534.400 445.021, 541 444.936 L 553 444.781 558.009 439.300 C 572.369 423.587, 579.940 401.102, 578.648 378 C 577.717 361.337, 572.656 345.166, 565.686 336.578 L 563.314 333.656 563.219 337.011 C 563.073 342.143, 556.755 353.857, 550.935 359.789 C 548.080 362.698, 545.544 364.878, 545.299 364.633 C 545.055 364.388, 545.348 362.458, 545.951 360.344 C 546.554 358.230, 547.309 352.225, 547.628 347 C 549.691 313.232, 527.180 279.384, 498.157 272.614 C 494.771 271.824, 492 271.352, 492 271.565 M 206.250 296.599 C 204.463 299.658, 203.008 302.461, 203.017 302.830 C 203.026 303.198, 206.963 305.866, 211.767 308.759 C 216.570 311.651, 221.073 314.384, 221.772 314.831 C 222.728 315.443, 221.754 317.990, 217.854 325.073 C 214.999 330.258, 212.557 334.645, 212.427 334.821 C 212.297 334.998, 207.406 332.352, 201.559 328.941 C 195.711 325.530, 190.791 322.911, 190.624 323.120 C 190.458 323.329, 188.935 326.101, 187.241 329.279 L 184.160 335.059 186.330 336.370 C 197.937 343.382, 237 365.978, 237.909 366.206 C 238.556 366.368, 240.629 363.781, 242.517 360.457 L 245.950 354.414 234.996 348.457 C 228.971 345.181, 224.033 342.217, 224.021 341.872 C 223.994 341.067, 232.922 324.791, 234.038 323.610 C 234.519 323.102, 239.299 325.247, 245.182 328.610 C 250.848 331.850, 255.753 334.626, 256.081 334.780 C 256.728 335.083, 264.353 323.998, 263.823 323.523 C 263.645 323.365, 253.375 317.267, 241 309.973 C 228.625 302.679, 216.619 295.426, 214.320 293.856 C 212.021 292.285, 209.996 291.009, 209.820 291.020 C 209.644 291.031, 208.037 293.541, 206.250 296.599 M 823 338.027 C 818.875 338.445, 805.936 339.597, 794.248 340.586 C 782.559 341.576, 772.493 342.695, 771.880 343.074 C 770.341 344.025, 777.025 356.529, 779.010 356.412 C 779.830 356.364, 782.133 356.063, 784.129 355.745 L 787.758 355.165 792.887 364.972 L 798.016 374.779 793.443 378.639 L 788.870 382.500 792.044 389.282 C 795.659 397.006, 795.117 397.040, 803.505 388.560 C 806.257 385.777, 815.482 377.252, 824.005 369.615 C 832.527 361.977, 840.569 354.711, 841.875 353.466 L 844.251 351.204 840.977 344.102 C 837.263 336.043, 838.484 336.456, 823 338.027 M 176.488 352.250 C 176.240 352.938, 173.344 360.901, 170.050 369.948 C 166.757 378.994, 164.298 386.631, 164.586 386.920 C 164.875 387.208, 177.798 391.780, 193.305 397.079 C 208.812 402.378, 222.217 407.024, 223.093 407.404 C 224.402 407.970, 225.776 405.089, 230.778 391.297 C 234.128 382.059, 237.145 373.782, 237.482 372.903 C 237.947 371.696, 236.821 370.777, 232.868 369.134 C 229.992 367.939, 227.344 367.307, 226.984 367.730 C 226.624 368.154, 224.586 373.337, 222.456 379.250 C 220.326 385.163, 218.132 390, 217.581 390 C 215.723 390, 205 385.517, 205 384.741 C 205 384.317, 206.575 380.065, 208.500 375.291 C 210.425 370.517, 211.999 366.136, 211.998 365.556 C 211.997 364.975, 209.493 363.517, 206.434 362.317 L 200.872 360.133 199.097 364.317 C 198.121 366.617, 196.239 371.313, 194.915 374.752 C 193.592 378.190, 192.057 380.804, 191.505 380.561 C 190.952 380.318, 188.166 379.394, 185.312 378.507 L 180.125 376.894 183.476 367.697 C 185.319 362.639, 187.137 357.716, 187.517 356.759 C 188.064 355.379, 187.234 354.601, 183.521 353.009 C 178.049 350.663, 177.095 350.560, 176.488 352.250 M 810.660 352.063 C 805.798 352.494, 801.606 353.061, 801.345 353.322 C 800.778 353.889, 806.768 366, 807.616 366 C 808.511 366, 823.841 352.606, 823.926 351.750 C 824.008 350.921, 823.371 350.936, 810.660 352.063 M 848.500 389.298 C 844.100 390.338, 830.911 393.348, 819.192 395.986 C 807.472 398.625, 797.703 400.963, 797.483 401.183 C 796.992 401.675, 799.541 412.874, 800.322 413.656 C 800.632 413.966, 806.362 413.045, 813.055 411.610 C 819.749 410.174, 825.666 409, 826.206 409 C 827.434 409, 820.712 417.138, 811.331 427.009 L 804.163 434.552 805.831 443.341 L 807.500 452.130 821.307 436.565 C 828.900 428.004, 835.502 421, 835.977 421 C 836.451 421, 844.142 424.375, 853.066 428.500 C 861.990 432.625, 869.390 436, 869.509 436 C 869.629 436, 868.663 432.753, 867.363 428.785 C 866.063 424.817, 864.990 421.104, 864.978 420.535 C 864.965 419.966, 858.854 416.811, 851.397 413.524 C 843.940 410.237, 837.651 407.244, 837.422 406.873 C 837.193 406.503, 840.492 405.445, 844.753 404.523 C 860.707 401.070, 860.224 401.294, 859.437 397.715 C 859.054 395.970, 858.237 392.937, 857.620 390.975 L 856.500 387.407 848.500 389.298 M 165.502 404.550 C 160.805 407.039, 158.896 409.118, 156.368 414.500 C 151.558 424.742, 154.207 436.693, 162.346 441.462 C 168.541 445.093, 173.790 445.629, 179.296 443.193 C 183.889 441.162, 186.666 438.029, 192.237 428.595 C 195.149 423.665, 198.863 421.498, 202.736 422.470 C 212.176 424.839, 210.579 437.675, 200.612 439.545 C 197.323 440.162, 197 440.520, 197 443.546 C 197 449.366, 198.560 452, 202.007 452 C 205.867 452, 211.767 449.563, 214.834 446.702 C 222 440.018, 223.764 427.351, 218.723 418.777 C 215.346 413.032, 208.763 408.876, 202.011 408.227 C 192.794 407.341, 186.296 411.474, 181.345 421.372 C 177.886 428.285, 175.222 431, 171.897 431 C 168.191 431, 166 428.573, 166 424.468 C 166 420.574, 169.142 417, 172.566 417 C 176.264 417, 177.018 415.052, 175.673 408.969 C 174.562 403.942, 174.224 403.478, 171.482 403.231 C 169.842 403.083, 167.151 403.677, 165.502 404.550 M 459.950 457.896 C 456.348 461.498, 456.166 464.924, 459.250 471.030 C 462.106 476.683, 466.578 479.651, 473.800 480.684 C 481.222 481.746, 545.065 481.745, 551.292 480.682 C 556.842 479.735, 562.564 475.287, 564.649 470.298 C 566.714 465.355, 566.381 459.655, 563.896 457.405 C 561.895 455.594, 559.352 455.486, 512.346 455.223 L 462.901 454.945 459.950 457.896 M 391.778 502.485 C 386.981 503.269, 378.525 505.055, 372.988 506.455 C 367.451 507.855, 362.713 509, 362.460 509 C 362.207 509, 362 543.024, 362 584.608 L 362 660.217 364.750 659.516 C 411.400 647.625, 463.831 652.988, 496.685 673.011 C 501.187 675.755, 505.125 678, 505.435 678 C 505.746 678, 506 645.157, 506 605.015 L 506 532.029 500.250 527.451 C 497.087 524.933, 488.650 519.995, 481.500 516.478 C 460.644 506.218, 442.737 502.077, 416.500 501.445 C 405.672 501.184, 397.680 501.521, 391.778 502.485 M 593.500 501.620 C 560.663 506.671, 541.454 513.863, 522.250 528.295 L 517 532.240 517 605.620 C 517 645.979, 517.176 679, 517.392 679 C 517.608 679, 521.698 676.543, 526.482 673.539 C 551.056 658.111, 587.977 650.763, 625 653.931 C 636.977 654.956, 655.083 657.943, 659.431 659.612 C 660.848 660.156, 661 652.894, 661 584.717 L 661 509.219 653.250 507.158 C 639.498 503.501, 627.840 501.910, 612 501.530 C 603.475 501.326, 595.150 501.366, 593.500 501.620 M 397.500 529.621 C 393.100 530.414, 387.813 531.516, 385.750 532.070 C 382.010 533.074, 382 533.091, 382 538.422 L 382 543.766 386.160 542.333 C 399.428 537.762, 427.432 536.913, 446 540.519 C 456.653 542.588, 471.093 547.181, 480.682 551.551 C 484.730 553.396, 488.318 554.814, 488.655 554.703 C 488.991 554.591, 489.319 552.536, 489.383 550.136 L 489.500 545.771 482.660 542.328 C 458.879 530.355, 423.076 525.013, 397.500 529.621 M 582.870 529.476 C 567.364 532.004, 552.048 536.888, 539.182 543.408 L 534 546.034 534 551.017 C 534 556.435, 534.411 556.802, 537.814 554.418 C 540.726 552.378, 557.277 545.643, 564.632 543.505 C 586.548 537.134, 614.276 536.493, 634.805 541.882 L 642 543.771 642 538.469 L 642 533.167 632.750 530.945 C 620.903 528.100, 595.839 527.362, 582.870 529.476 M 405.393 558.021 C 401.484 558.433, 394.622 559.562, 390.143 560.530 L 382 562.289 382 567.483 L 382 572.677 390.750 570.643 C 397.905 568.980, 403.055 568.600, 419 568.558 C 439.865 568.503, 446.731 569.455, 463.490 574.726 C 469.641 576.660, 484.667 583.122, 489.019 585.705 C 489.305 585.874, 489.460 583.652, 489.364 580.766 L 489.189 575.520 481.844 571.805 C 459.851 560.681, 430.446 555.379, 405.393 558.021 M 591.500 557.700 C 576.044 559.104, 556.594 564.553, 543 571.289 L 534.500 575.500 534.198 580.756 L 533.895 586.011 542.698 581.614 C 552.007 576.963, 562.329 573.422, 575.500 570.360 C 587.848 567.489, 620.167 567.730, 632.329 570.783 C 637.185 572.003, 641.371 573, 641.631 573 C 641.892 573, 641.969 570.638, 641.802 567.750 L 641.500 562.500 634.583 560.824 C 621.894 557.749, 604.687 556.502, 591.500 557.700 M 400.500 587.568 C 399.400 587.815, 394.788 588.747, 390.250 589.637 L 382 591.255 382 596.734 C 382 601.544, 382.214 602.131, 383.750 601.538 C 396.073 596.775, 428.825 595.912, 447.500 599.857 C 459.074 602.303, 473.620 607.298, 483.221 612.124 C 486.368 613.706, 489.068 615, 489.221 615.001 C 489.375 615.001, 489.471 612.864, 489.437 610.251 L 489.373 605.500 480.102 600.841 C 470.481 596.006, 459.528 592.174, 447.500 589.435 C 440.762 587.900, 405.277 586.491, 400.500 587.568 M 582.863 588.015 C 569.004 590.191, 553.127 595.374, 539.962 602.019 L 534 605.029 534 610.098 C 534 612.886, 534.337 615.014, 534.750 614.829 C 535.163 614.643, 539.325 612.628, 544 610.353 C 553.911 605.528, 565.167 601.835, 577.626 599.319 C 591.070 596.604, 619.226 596.858, 631.953 599.809 C 637.152 601.014, 641.563 602, 641.755 602 C 641.947 602, 641.969 599.646, 641.802 596.770 L 641.500 591.540 634 589.671 C 625.434 587.536, 592.668 586.475, 582.863 588.015 M 405.487 616.991 C 401.080 617.377, 393.993 618.468, 389.737 619.415 L 382 621.136 382 626.431 L 382 631.725 389.750 629.775 C 402.235 626.634, 426.275 626.224, 441.871 628.887 C 455.806 631.265, 471.382 636.153, 481.885 641.442 C 485.771 643.399, 489.074 645, 489.225 644.999 C 489.376 644.998, 489.566 642.795, 489.647 640.102 C 489.793 635.252, 489.751 635.183, 485.147 632.717 C 477.044 628.377, 462.744 623.140, 451.946 620.557 C 443.344 618.500, 418.797 615.598, 414.605 616.144 C 413.997 616.223, 409.894 616.604, 405.487 616.991 M 589.572 617.091 C 576.755 618.376, 561.289 622.357, 549.057 627.520 C 534.463 633.681, 534 634.062, 534 639.934 L 534 644.755 541.762 640.938 C 551.196 636.299, 564.583 631.755, 576 629.316 C 588.942 626.551, 619.080 626.814, 631.953 629.804 C 637.152 631.012, 641.563 632, 641.755 632 C 641.947 632, 641.969 629.668, 641.802 626.817 C 641.452 620.813, 641.717 620.957, 626.500 618.566 C 613.937 616.592, 600.073 616.039, 589.572 617.091 M 268.865 671.700 C 262.796 678.304, 241.372 696.154, 220 712.412 C 207.075 722.244, 196.106 730.640, 195.624 731.070 C 194.688 731.906, 202.827 744.012, 217.425 763.500 C 238.439 791.552, 276.998 825.217, 313.215 847.130 C 390.335 893.792, 485.865 911.891, 575.916 896.900 C 621.195 889.362, 669.679 871.069, 709.713 846.417 C 752.359 820.156, 792.021 782.685, 819.596 742.602 C 825.449 734.094, 826.815 731.476, 825.718 730.862 C 824.942 730.428, 815.575 723.457, 804.903 715.371 C 784.654 700.028, 772.086 689.575, 758.360 676.659 C 753.884 672.447, 749.767 669, 749.212 669 C 748.657 669, 743.655 674.126, 738.096 680.392 C 719.482 701.371, 699.922 718.466, 677.811 733.082 C 612.436 776.293, 536.559 793.287, 464 780.969 C 411.962 772.134, 363.295 750.363, 320.872 716.941 C 315.167 712.447, 301.664 699.850, 290.865 688.948 L 271.230 669.126 268.865 671.700 M 450.164 718.689 C 446.493 720.498, 444.491 723.055, 443.459 727.250 C 442.803 729.921, 442.904 730, 446.985 730 C 450.398 730, 451.289 729.610, 451.730 727.923 C 452.029 726.781, 453.398 725.419, 454.772 724.897 C 458.482 723.486, 461.996 726.095, 462.013 730.273 C 462.024 733.058, 460.654 734.822, 452.013 743.154 C 445.584 749.352, 442 753.558, 442 754.904 C 442 756.936, 442.445 757, 456.500 757 L 471 757 471 753.500 L 471 750 462.365 750 L 453.730 750 456.615 747.836 C 461.735 743.994, 468.122 737.572, 469.580 734.800 C 475.404 723.723, 462.193 712.762, 450.164 718.689 M 489.005 718.752 C 483.341 721.586, 480.531 727.807, 480.538 737.500 C 480.547 750.431, 485.045 756.859, 494.676 757.701 C 505.186 758.620, 511 751.446, 511 737.555 C 511 724.216, 505.736 717.003, 496 717.003 C 494.075 717.003, 490.927 717.790, 489.005 718.752 M 529.415 718.421 C 522.741 721.328, 519.466 729.098, 520.249 740.169 C 521.063 751.662, 526.200 757.500, 535.500 757.500 C 541.585 757.500, 545.285 755.366, 548.389 750.065 C 550.820 745.914, 551.688 734.531, 550.027 728.598 C 547.435 719.340, 538.002 714.683, 529.415 718.421 M 564.250 721.768 C 559.297 724.264, 559 724.629, 559 728.227 L 559 732.041 562.960 730.020 C 565.138 728.909, 567.051 727.999, 567.210 727.998 C 567.370 727.998, 567.364 734.523, 567.199 742.498 L 566.897 757 571.199 757 L 575.500 757 575.500 738 L 575.500 719 572.500 719.061 C 570.850 719.094, 567.138 720.312, 564.250 721.768 M 493.409 724.972 C 490.112 726.306, 488.733 731.051, 489.164 739.583 C 489.494 746.117, 489.886 747.489, 491.886 749.109 C 494.936 751.579, 496.314 751.494, 499.638 748.635 C 502.002 746.601, 502.446 745.353, 502.804 739.734 C 503.321 731.622, 501.687 726.212, 498.337 724.938 C 496.980 724.422, 495.787 724.029, 495.685 724.063 C 495.583 724.098, 494.559 724.507, 493.409 724.972 M 531.571 726.338 C 527.030 730.880, 527.341 745.428, 532.061 749.250 C 534.959 751.597, 536.636 751.455, 539.465 748.626 C 543.990 744.101, 543.969 730.878, 539.430 726.340 C 536.477 723.386, 534.523 723.386, 531.571 726.338 M 725.950 738.650 C 723.503 740.586, 721.338 742.331, 721.141 742.527 C 720.672 742.994, 723.878 747.527, 732.081 758 C 742.679 771.529, 744 773.797, 744 778.452 C 744 782.775, 741.443 786.244, 736.316 788.878 C 729.758 792.247, 725.672 789.018, 713.089 770.524 C 708.029 763.086, 703.657 757, 703.374 757 C 702.956 757, 694.657 762.377, 693.067 763.678 C 692.552 764.100, 709.787 789.602, 714.833 795.885 C 721.640 804.360, 731.105 806.021, 741.779 800.612 C 748.942 796.982, 752.508 793.628, 755.422 787.780 C 758.533 781.538, 758.747 775.242, 756.050 769.302 C 754.363 765.586, 733.105 736.801, 731.160 735.599 C 730.742 735.341, 728.398 736.714, 725.950 738.650 M 285.951 739.351 C 276.672 741.876, 269.687 748.120, 265.136 757.954 C 261.711 765.358, 261.538 776.457, 264.753 782.613 C 267.788 788.425, 276.064 795.503, 282.798 798.045 C 293.475 802.077, 303.273 799.506, 312.200 790.331 C 322.204 780.050, 325.050 766.754, 319.622 755.659 C 313.757 743.673, 298.040 736.060, 285.951 739.351 M 289 752.118 C 287.625 752.664, 284.998 754.548, 283.162 756.305 C 273.214 765.829, 273.607 779.634, 283.984 785.148 C 290.844 788.794, 297.196 787.094, 303.281 779.984 C 309.765 772.410, 310.628 762.405, 305.288 756.721 C 300.504 751.629, 294.506 749.934, 289 752.118 M 333.196 779.250 C 326.332 792.182, 313 818.733, 313 819.470 C 313 820.065, 322.596 825.005, 323.717 824.988 C 324.148 824.981, 326.515 821.156, 328.978 816.488 C 331.440 811.819, 333.717 808, 334.037 808 C 337.531 808, 339.932 816.378, 339.980 828.737 L 340 833.975 347 837.500 C 353.017 840.530, 354 840.778, 353.997 839.263 C 353.994 837.254, 352.187 820.838, 351.533 816.872 C 351.120 814.375, 351.348 814.221, 356.124 813.762 C 362.301 813.169, 365.814 810.725, 368.750 804.980 C 372.661 797.326, 371.073 788.106, 364.847 782.317 C 363.065 780.660, 340.551 768, 339.386 768 C 339.265 768, 336.480 773.063, 333.196 779.250 M 660.722 780.758 C 657.544 782.174, 655.069 783.605, 655.222 783.939 C 656.009 785.656, 681.325 834.554, 681.588 834.865 C 681.899 835.232, 703.897 823.878, 711.680 819.333 L 715.860 816.892 712.756 812.196 C 711.049 809.613, 709.529 807.336, 709.379 807.136 C 709.228 806.935, 704.371 809.277, 698.585 812.339 L 688.065 817.907 680.394 803.204 C 672.317 787.723, 666.972 777.938, 666.677 778.092 C 666.579 778.142, 663.900 779.342, 660.722 780.758 M 341.869 791.051 L 338.238 798.087 343.086 800.543 C 349.211 803.647, 352.443 803.648, 355.545 800.545 C 359.942 796.149, 358.479 791.528, 351.233 786.933 C 348.690 785.320, 346.359 784.003, 346.054 784.008 C 345.749 784.012, 343.866 787.181, 341.869 791.051 M 638 790.523 C 634.975 791.815, 632.578 793.238, 632.673 793.686 C 632.769 794.134, 635.581 802.063, 638.923 811.307 C 642.297 820.638, 645 829.784, 645 831.870 C 645 836.819, 640.870 840.939, 635.140 841.708 C 631.481 842.199, 630.709 841.904, 627.722 838.878 C 625.006 836.127, 623.304 832.254, 618.546 818 C 615.334 808.375, 612.550 800.211, 612.360 799.857 C 611.980 799.151, 601.965 801.801, 600.729 802.935 C 600.305 803.324, 602.877 812.610, 606.445 823.571 C 613.520 845.306, 615.814 849.334, 623.290 853.148 C 626.669 854.872, 628.649 855.157, 634.586 854.776 C 648.216 853.901, 657.814 845.535, 658.758 833.706 C 659.106 829.344, 658.336 826.148, 654.012 814 C 651.173 806.025, 647.942 796.913, 646.833 793.750 C 645.724 790.587, 644.520 788.039, 644.158 788.087 C 643.796 788.135, 641.025 789.231, 638 790.523 M 383 790.463 C 383 790.718, 382.110 793.183, 381.023 795.941 L 379.046 800.957 386.273 803.108 C 390.248 804.291, 393.811 805.539, 394.192 805.880 C 394.572 806.221, 391.365 816.548, 387.065 828.829 C 382.086 843.048, 379.656 851.296, 380.373 851.539 C 380.993 851.748, 383.889 852.805, 386.810 853.887 C 390.624 855.299, 392.236 855.522, 392.534 854.677 C 392.762 854.029, 396.171 844.050, 400.109 832.500 C 404.047 820.950, 407.599 811.132, 408.003 810.681 C 408.407 810.231, 411.970 810.845, 415.922 812.045 C 419.873 813.245, 423.242 814.063, 423.408 813.864 C 423.939 813.224, 427.004 803.669, 426.747 803.453 C 426.370 803.136, 384.201 790, 383.560 790 C 383.252 790, 383 790.208, 383 790.463 M 583.079 806.605 C 579.547 807.377, 576.551 808.120, 576.421 808.255 C 576.291 808.390, 573.125 813.675, 569.385 820 L 562.585 831.500 560.960 821.751 C 560.066 816.389, 559.147 811.829, 558.917 811.617 C 558.434 811.173, 547.007 812.659, 546.424 813.243 C 546.088 813.578, 547.414 822.380, 554.125 864.381 L 555.225 871.261 561.281 870.628 C 564.613 870.280, 567.553 869.781, 567.815 869.518 C 568.078 869.256, 567.548 864.233, 566.639 858.357 C 565.089 848.335, 565.092 847.556, 566.686 845.794 C 568.323 843.985, 568.794 844.324, 579.596 855.096 L 590.807 866.275 599.065 864.990 L 607.324 863.705 591.493 848.571 L 575.662 833.436 583.201 821.468 C 593.289 805.455, 593.526 804.974, 591.285 805.100 C 590.303 805.156, 586.610 805.833, 583.079 806.605 M 435.056 819.281 C 431.511 825.452, 424.634 837.423, 419.773 845.884 C 414.912 854.346, 411.062 861.346, 411.218 861.441 C 411.373 861.536, 414.539 862.314, 418.254 863.171 L 425.008 864.729 428.167 859.115 C 429.905 856.027, 431.464 853.326, 431.633 853.114 C 431.965 852.695, 442.223 854.538, 448.210 856.092 C 451.473 856.939, 451.993 857.504, 452.527 860.778 C 454.113 870.493, 453.604 869.813, 459.815 870.518 C 462.942 870.873, 466.356 871.404, 467.401 871.697 C 468.860 872.107, 469.154 871.845, 468.666 870.571 C 468.315 869.658, 465.693 855.734, 462.838 839.629 L 457.647 810.347 450.805 809.173 C 447.042 808.528, 443.409 808.014, 442.731 808.031 C 442.054 808.049, 438.600 813.111, 435.056 819.281 M 497.479 813.801 C 494.718 814.756, 491.084 816.516, 489.404 817.712 C 481.876 823.073, 477.386 834.698, 478.280 846.514 C 479.216 858.900, 484.201 866.990, 493.792 871.692 C 498.630 874.064, 500.720 874.485, 507.500 874.453 C 520.660 874.391, 530.260 868.546, 535.168 857.607 C 538.177 850.901, 538.376 838.086, 535.596 830.058 C 533.002 822.567, 526.050 815.686, 518.941 813.575 C 512.070 811.535, 503.782 811.622, 497.479 813.801 M 442.201 832.367 C 439.286 837.794, 437.090 842.423, 437.320 842.654 C 437.981 843.315, 449.941 845.398, 450.357 844.925 C 450.562 844.691, 450.161 840.675, 449.465 836 C 448.769 831.325, 448.043 826.375, 447.850 825 C 447.565 822.966, 446.513 824.338, 442.201 832.367 M 499.952 826.253 C 495.420 829.307, 492.976 833.834, 492.295 840.433 C 491.534 847.809, 493.391 854.017, 497.571 858.069 C 500.368 860.780, 501.897 861.410, 506.635 861.803 C 513.577 862.378, 517.997 860.349, 521.274 855.080 C 524.383 850.081, 524.479 837.167, 521.446 832.003 C 518.420 826.852, 513.629 824, 508 824 C 504.775 824, 502.244 824.709, 499.952 826.253" stroke="none" fill="#000000" fill-rule="evenodd"/>
</svg>